<?xml version="1.0" encoding="utf-8"?>
<!-- Generator: Adobe Illustrator 17.0.0, SVG Export Plug-In . SVG Version: 6.00 Build 0)  -->
<!DOCTYPE svg PUBLIC "-//W3C//DTD SVG 1.1//EN" "http://www.w3.org/Graphics/SVG/1.1/DTD/svg11.dtd">
<svg version="1.1" id="Capa_1" xmlns="http://www.w3.org/2000/svg" xmlns:xlink="http://www.w3.org/1999/xlink" x="0px" y="0px"
	 width="79px" height="99px" viewBox="0 0 79 99" enable-background="new 0 0 79 99" xml:space="preserve">
<title>Logo-pie</title>
<desc>Created with Sketch.</desc>
<g>
	<path fill="#FFFFFF" d="M35.083,49.517H24.45v-1.474c0.341-0.03,0.695-0.06,1.06-0.091c0.365-0.029,0.681-0.089,0.949-0.178
		c0.417-0.134,0.726-0.368,0.927-0.702c0.202-0.336,0.302-0.771,0.302-1.307v-13.59c0-0.476-0.108-0.911-0.324-1.306
		c-0.216-0.395-0.518-0.725-0.905-0.993c-0.282-0.179-0.692-0.331-1.228-0.458c-0.537-0.127-1.028-0.205-1.476-0.234v-1.476
		l7.776-0.49l0.312,0.312v17.965c0,0.52,0.1,0.954,0.3,1.297c0.2,0.34,0.514,0.595,0.944,0.759c0.324,0.134,0.642,0.241,0.953,0.323
		c0.311,0.083,0.659,0.139,1.043,0.168V49.517z M32.292,18.527c0,0.85-0.28,1.59-0.838,2.223c-0.56,0.633-1.249,0.95-2.067,0.95
		c-0.759,0-1.418-0.301-1.978-0.905c-0.558-0.603-0.837-1.292-0.837-2.067c0-0.818,0.279-1.534,0.837-2.145
		c0.559-0.61,1.218-0.915,1.978-0.915c0.849,0,1.545,0.287,2.089,0.859C32.019,17.101,32.292,17.767,32.292,18.527"/>
	<path fill="#FFFFFF" d="M59.304,38.278c0,1.549-0.246,3.072-0.737,4.57c-0.493,1.496-1.193,2.766-2.103,3.809
		c-1.029,1.192-2.223,2.078-3.579,2.66c-1.358,0.581-2.878,0.871-4.564,0.871c-1.401,0-2.736-0.265-4.004-0.793
		c-1.267-0.529-2.393-1.3-3.377-2.313c-0.969-0.998-1.741-2.215-2.314-3.653c-0.574-1.438-0.861-3.05-0.861-4.838
		c0-3.441,1.002-6.256,3.008-8.446c2.005-2.189,4.634-3.284,7.884-3.284c3.086,0,5.632,1.039,7.639,3.117
		C58.302,32.056,59.304,34.822,59.304,38.278 M54.679,38.322c0-1.117-0.112-2.297-0.335-3.541c-0.224-1.243-0.559-2.297-1.008-3.162
		c-0.476-0.922-1.104-1.663-1.88-2.223c-0.775-0.558-1.723-0.837-2.842-0.837c-1.15,0-2.13,0.282-2.944,0.849
		c-0.812,0.566-1.473,1.341-1.98,2.323c-0.478,0.908-0.813,1.944-1.008,3.105C42.487,36,42.39,37.124,42.39,38.211
		c0,1.431,0.116,2.753,0.348,3.966c0.231,1.214,0.6,2.299,1.108,3.251c0.507,0.954,1.145,1.703,1.914,2.245
		c0.769,0.544,1.719,0.817,2.853,0.817c1.865,0,3.343-0.901,4.432-2.703C54.134,43.984,54.679,41.496,54.679,38.322"/>
	<path fill="#FFFFFF" d="M66.932,32.987c2.517,3.235,3.325,6.94,2.425,11.115c-0.901,4.175-3.499,8.412-7.797,12.711
		c-4.371,4.37-8.653,7.014-12.845,7.93c-4.191,0.915-7.915,0.128-11.17-2.37l1.312-1.312c2.391,1.653,5.22,1.901,8.484,0.743
		c3.266-1.159,7.005-3.845,11.218-8.058c4.013-4.012,6.617-7.65,7.812-10.909c1.196-3.26,0.951-6.112-0.735-8.556L66.932,32.987z"/>
	<path fill="#FFFFFF" d="M17.575,12.828c4.298-4.298,8.536-6.896,12.711-7.796c4.176-0.901,7.881-0.092,11.115,2.423l-1.296,1.297
		c-2.443-1.685-5.295-1.931-8.555-0.735c-3.261,1.197-6.897,3.799-10.909,7.813c-4.212,4.213-6.899,7.952-8.057,11.218
		c-1.159,3.265-0.912,6.092,0.742,8.483l-1.311,1.313c-2.496-3.257-3.286-6.979-2.369-11.171
		C10.561,21.48,13.205,17.2,17.575,12.828"/>
	<path fill="#FFFFFF" d="M3.974,78.99h-3.9v-0.433c0.11-0.008,0.269-0.021,0.476-0.037c0.207-0.016,0.354-0.04,0.439-0.073
		c0.135-0.053,0.233-0.125,0.293-0.216c0.061-0.092,0.092-0.219,0.092-0.382v-6.273c0-0.143-0.022-0.262-0.067-0.358
		c-0.045-0.096-0.15-0.176-0.317-0.241c-0.122-0.049-0.275-0.094-0.46-0.137c-0.185-0.043-0.337-0.069-0.455-0.077V70.33h3.9v0.433
		c-0.126,0.004-0.277,0.019-0.452,0.046c-0.175,0.026-0.327,0.06-0.458,0.101c-0.155,0.049-0.258,0.128-0.311,0.238
		c-0.053,0.11-0.079,0.232-0.079,0.366v6.268c0,0.135,0.03,0.253,0.089,0.357c0.059,0.104,0.16,0.186,0.302,0.247
		c0.085,0.033,0.225,0.068,0.418,0.107c0.194,0.039,0.357,0.06,0.492,0.064V78.99z"/>
	<path fill="#FFFFFF" d="M11.547,78.99H8.606v-0.403c0.094-0.008,0.197-0.016,0.309-0.025c0.112-0.008,0.204-0.024,0.277-0.048
		c0.114-0.036,0.199-0.101,0.253-0.192c0.055-0.091,0.083-0.211,0.083-0.357v-3.094c0-0.427-0.101-0.757-0.303-0.989
		c-0.202-0.232-0.448-0.348-0.737-0.348c-0.216,0-0.414,0.033-0.593,0.101c-0.179,0.067-0.338,0.15-0.477,0.247
		c-0.135,0.094-0.241,0.194-0.321,0.302c-0.079,0.108-0.138,0.195-0.174,0.26v3.46c0,0.138,0.028,0.252,0.085,0.341
		c0.057,0.09,0.142,0.159,0.256,0.208c0.085,0.04,0.178,0.071,0.277,0.092c0.1,0.02,0.202,0.034,0.309,0.042v0.403H4.902v-0.403
		c0.093-0.008,0.19-0.016,0.29-0.025c0.099-0.008,0.186-0.024,0.259-0.048c0.114-0.036,0.199-0.101,0.253-0.192
		c0.055-0.092,0.082-0.211,0.082-0.357v-3.712c0-0.138-0.03-0.265-0.089-0.381c-0.058-0.116-0.141-0.211-0.247-0.283
		c-0.077-0.049-0.168-0.084-0.275-0.107c-0.106-0.022-0.219-0.037-0.341-0.045v-0.403l2.001-0.135l0.085,0.086v0.848h0.03
		c0.098-0.097,0.22-0.214,0.366-0.351c0.146-0.136,0.285-0.247,0.415-0.333c0.15-0.097,0.33-0.179,0.537-0.244
		c0.207-0.065,0.441-0.097,0.702-0.097c0.578,0,1.006,0.18,1.285,0.539c0.278,0.361,0.418,0.839,0.418,1.438v3.131
		c0,0.142,0.024,0.257,0.073,0.344c0.049,0.087,0.132,0.155,0.25,0.204c0.097,0.041,0.182,0.069,0.253,0.086s0.17,0.028,0.296,0.036
		V78.99z"/>
	<path fill="#FFFFFF" d="M16.259,76.042c0.167,0.146,0.295,0.315,0.385,0.507c0.089,0.191,0.134,0.425,0.134,0.702
		c0,0.558-0.208,1.013-0.625,1.367c-0.417,0.354-0.957,0.531-1.621,0.531c-0.349,0-0.672-0.063-0.967-0.189
		c-0.295-0.126-0.505-0.243-0.632-0.348l-0.122,0.397h-0.458l-0.062-2.093h0.421c0.033,0.16,0.102,0.345,0.207,0.558
		c0.106,0.212,0.234,0.404,0.385,0.575c0.159,0.18,0.349,0.331,0.571,0.454c0.222,0.122,0.471,0.184,0.747,0.184
		c0.391,0,0.692-0.089,0.903-0.267c0.211-0.178,0.317-0.433,0.317-0.764c0-0.171-0.033-0.318-0.101-0.443
		c-0.067-0.124-0.166-0.233-0.296-0.327c-0.135-0.093-0.299-0.177-0.495-0.253c-0.195-0.075-0.412-0.15-0.652-0.223
		c-0.191-0.057-0.404-0.136-0.638-0.236c-0.234-0.099-0.434-0.216-0.601-0.351c-0.179-0.142-0.326-0.317-0.439-0.525
		c-0.114-0.207-0.171-0.451-0.171-0.732c0-0.492,0.183-0.909,0.549-1.251c0.366-0.341,0.856-0.512,1.471-0.512
		c0.236,0,0.476,0.03,0.723,0.091c0.246,0.061,0.446,0.135,0.601,0.22l0.14-0.317h0.44l0.091,1.935h-0.421
		c-0.085-0.433-0.27-0.786-0.552-1.057c-0.283-0.272-0.628-0.407-1.035-0.407c-0.334,0-0.596,0.084-0.787,0.251
		c-0.191,0.168-0.287,0.371-0.287,0.609c0,0.183,0.032,0.335,0.095,0.458c0.063,0.122,0.158,0.226,0.284,0.311
		c0.123,0.081,0.276,0.158,0.461,0.229c0.185,0.071,0.414,0.152,0.686,0.241c0.269,0.085,0.522,0.185,0.76,0.299
		C15.908,75.778,16.104,75.904,16.259,76.042"/>
	<path fill="#FFFFFF" d="M21.403,78.727c-0.265,0.11-0.515,0.202-0.751,0.278c-0.236,0.075-0.525,0.113-0.867,0.113
		c-0.504,0-0.859-0.128-1.065-0.382c-0.206-0.255-0.308-0.614-0.308-1.077v-4.076h-1.086v-0.586h1.111v-1.874h1.111v1.874h1.727
		v0.586H19.56v3.362c0,0.252,0.009,0.463,0.028,0.632c0.018,0.168,0.062,0.316,0.131,0.443c0.065,0.118,0.163,0.207,0.294,0.268
		c0.13,0.061,0.305,0.092,0.525,0.092c0.101,0,0.251-0.009,0.448-0.028s0.337-0.041,0.418-0.07V78.727z"/>
	<path fill="#FFFFFF" d="M24.918,78.99h-2.905v-0.402c0.094-0.008,0.19-0.016,0.29-0.025c0.099-0.008,0.186-0.025,0.259-0.049
		c0.114-0.036,0.199-0.101,0.253-0.192c0.055-0.092,0.082-0.211,0.082-0.357v-3.712c0-0.13-0.03-0.249-0.089-0.356
		c-0.058-0.108-0.141-0.198-0.247-0.271c-0.077-0.049-0.189-0.091-0.336-0.125c-0.146-0.035-0.28-0.056-0.402-0.064v-0.403
		l2.123-0.135l0.085,0.086v4.907c0,0.142,0.027,0.26,0.082,0.354c0.055,0.094,0.14,0.163,0.258,0.207
		c0.089,0.036,0.175,0.066,0.26,0.089c0.085,0.023,0.18,0.038,0.285,0.046V78.99z M24.155,70.526c0,0.232-0.076,0.434-0.229,0.607
		c-0.153,0.173-0.341,0.259-0.564,0.259c-0.207,0-0.387-0.082-0.54-0.247c-0.153-0.165-0.229-0.353-0.229-0.564
		c0-0.224,0.076-0.419,0.229-0.586c0.153-0.167,0.333-0.25,0.54-0.25c0.232,0,0.422,0.079,0.571,0.235
		C24.081,70.136,24.155,70.318,24.155,70.526"/>
	<path fill="#FFFFFF" d="M29.379,78.727c-0.265,0.11-0.515,0.202-0.751,0.278c-0.236,0.075-0.525,0.113-0.867,0.113
		c-0.504,0-0.859-0.128-1.065-0.382c-0.206-0.255-0.308-0.614-0.308-1.077v-4.076h-1.086v-0.586h1.111v-1.874h1.111v1.874h1.727
		v0.586h-1.715v3.362c0,0.252,0.009,0.463,0.028,0.632c0.018,0.168,0.062,0.316,0.131,0.443c0.065,0.118,0.163,0.207,0.294,0.268
		c0.13,0.061,0.305,0.092,0.525,0.092c0.101,0,0.251-0.009,0.448-0.028s0.337-0.041,0.418-0.07V78.727z"/>
	<path fill="#FFFFFF" d="M36.428,78.88l-1.965,0.135l-0.092-0.086v-0.763h-0.036c-0.097,0.102-0.207,0.211-0.329,0.327
		c-0.121,0.116-0.262,0.221-0.42,0.314c-0.183,0.109-0.36,0.193-0.531,0.25c-0.17,0.057-0.412,0.085-0.725,0.085
		c-0.532,0-0.937-0.173-1.216-0.521c-0.278-0.347-0.417-0.852-0.417-1.515v-2.877c0-0.146-0.028-0.269-0.084-0.369
		c-0.055-0.099-0.136-0.185-0.242-0.259c-0.074-0.049-0.166-0.084-0.277-0.106c-0.111-0.023-0.228-0.038-0.35-0.046v-0.403
		l2.008-0.146l0.092,0.085v4.18c0,0.436,0.097,0.762,0.293,0.982c0.195,0.22,0.429,0.329,0.702,0.329
		c0.223,0,0.422-0.035,0.598-0.104c0.175-0.069,0.321-0.15,0.439-0.243c0.109-0.085,0.206-0.176,0.29-0.272
		c0.084-0.096,0.147-0.184,0.192-0.265v-3.407c0-0.134-0.028-0.253-0.085-0.356c-0.057-0.104-0.136-0.192-0.238-0.265
		c-0.073-0.049-0.182-0.079-0.326-0.089c-0.145-0.01-0.306-0.019-0.485-0.027v-0.403l2.191-0.146l0.092,0.085v4.773
		c0,0.138,0.028,0.256,0.085,0.353c0.057,0.098,0.136,0.181,0.238,0.25c0.074,0.045,0.161,0.074,0.263,0.089
		c0.101,0.014,0.214,0.023,0.336,0.027V78.88z"/>
	<path fill="#FFFFFF" d="M40.882,78.727c-0.265,0.11-0.515,0.202-0.751,0.278c-0.236,0.075-0.525,0.113-0.867,0.113
		c-0.504,0-0.859-0.128-1.065-0.382c-0.206-0.255-0.308-0.614-0.308-1.077v-4.076h-1.086v-0.586h1.111v-1.874h1.111v1.874h1.727
		v0.586h-1.715v3.362c0,0.252,0.009,0.463,0.028,0.632c0.018,0.168,0.062,0.316,0.131,0.443c0.065,0.118,0.163,0.207,0.294,0.268
		c0.13,0.061,0.305,0.092,0.525,0.092c0.101,0,0.251-0.009,0.448-0.028c0.197-0.018,0.337-0.041,0.418-0.07V78.727z"/>
	<path fill="#FFFFFF" d="M47.351,75.92c0,0.424-0.067,0.839-0.202,1.248c-0.135,0.409-0.326,0.756-0.575,1.04
		c-0.281,0.326-0.607,0.568-0.977,0.726c-0.37,0.159-0.786,0.238-1.246,0.238c-0.383,0-0.747-0.072-1.094-0.216
		c-0.346-0.145-0.654-0.355-0.922-0.632c-0.265-0.273-0.476-0.605-0.632-0.998c-0.157-0.392-0.235-0.833-0.235-1.321
		c0-0.94,0.273-1.709,0.822-2.306c0.548-0.598,1.265-0.897,2.154-0.897c0.843,0,1.538,0.283,2.086,0.851
		C47.077,74.221,47.351,74.976,47.351,75.92 M46.088,75.933c0-0.305-0.031-0.628-0.092-0.967c-0.061-0.339-0.153-0.627-0.275-0.864
		c-0.131-0.252-0.302-0.454-0.514-0.607c-0.212-0.153-0.471-0.229-0.777-0.229c-0.314,0-0.582,0.077-0.804,0.232
		c-0.222,0.155-0.402,0.366-0.541,0.635c-0.131,0.248-0.223,0.531-0.275,0.848c-0.053,0.317-0.08,0.625-0.08,0.922
		c0,0.391,0.031,0.752,0.095,1.084c0.063,0.331,0.164,0.627,0.302,0.888c0.139,0.26,0.313,0.465,0.523,0.614
		c0.21,0.148,0.47,0.223,0.779,0.223c0.51,0,0.913-0.246,1.211-0.738C45.939,77.478,46.088,76.799,46.088,75.933"/>
	<path fill="#FFFFFF" d="M52.19,76.042c0.167,0.146,0.295,0.315,0.385,0.507c0.089,0.191,0.134,0.425,0.134,0.702
		c0,0.558-0.208,1.013-0.625,1.367c-0.417,0.354-0.957,0.531-1.621,0.531c-0.349,0-0.672-0.063-0.967-0.189
		c-0.295-0.126-0.505-0.243-0.632-0.348l-0.122,0.397h-0.458l-0.062-2.093h0.421c0.033,0.16,0.102,0.345,0.207,0.558
		c0.106,0.212,0.234,0.404,0.385,0.575c0.159,0.18,0.349,0.331,0.571,0.454c0.222,0.122,0.471,0.184,0.747,0.184
		c0.391,0,0.692-0.089,0.903-0.267c0.211-0.178,0.317-0.433,0.317-0.764c0-0.171-0.033-0.318-0.101-0.443
		c-0.067-0.124-0.166-0.233-0.296-0.327c-0.135-0.093-0.299-0.177-0.495-0.253c-0.195-0.075-0.412-0.15-0.652-0.223
		c-0.191-0.057-0.404-0.136-0.638-0.236c-0.234-0.099-0.434-0.216-0.601-0.351c-0.179-0.142-0.326-0.317-0.439-0.525
		c-0.114-0.207-0.171-0.451-0.171-0.732c0-0.492,0.183-0.909,0.549-1.251c0.366-0.341,0.856-0.512,1.471-0.512
		c0.236,0,0.476,0.03,0.723,0.091c0.246,0.061,0.446,0.135,0.601,0.22l0.14-0.317h0.44l0.091,1.935h-0.421
		c-0.085-0.433-0.27-0.786-0.552-1.057c-0.283-0.272-0.628-0.407-1.035-0.407c-0.334,0-0.596,0.084-0.787,0.251
		c-0.191,0.168-0.287,0.371-0.287,0.609c0,0.183,0.032,0.335,0.095,0.458c0.063,0.122,0.158,0.226,0.284,0.311
		c0.123,0.081,0.276,0.158,0.461,0.229c0.185,0.071,0.414,0.152,0.686,0.241c0.269,0.085,0.522,0.185,0.76,0.299
		C51.84,75.778,52.036,75.904,52.19,76.042"/>
	<path fill="#FFFFFF" d="M7.184,83.98c0.382,0.399,0.681,0.88,0.897,1.443c0.216,0.564,0.324,1.187,0.324,1.871
		c0,0.688-0.11,1.312-0.33,1.873c-0.219,0.561-0.525,1.04-0.915,1.434c-0.378,0.39-0.818,0.691-1.318,0.903
		c-0.5,0.211-1.033,0.317-1.599,0.317c-0.602,0-1.159-0.113-1.67-0.338c-0.51-0.226-0.949-0.54-1.315-0.943
		c-0.366-0.395-0.654-0.874-0.864-1.438c-0.209-0.563-0.314-1.166-0.314-1.809c0-0.704,0.11-1.331,0.329-1.883
		c0.22-0.551,0.523-1.028,0.91-1.431c0.383-0.399,0.827-0.703,1.333-0.915c0.507-0.212,1.037-0.317,1.59-0.317
		c0.573,0,1.114,0.108,1.623,0.324C6.375,83.287,6.814,83.59,7.184,83.98 M6.275,90.119c0.228-0.37,0.393-0.789,0.498-1.257
		c0.104-0.468,0.155-0.991,0.155-1.568c0-0.594-0.058-1.139-0.174-1.636c-0.116-0.496-0.285-0.92-0.509-1.269
		c-0.224-0.346-0.505-0.615-0.842-0.808c-0.338-0.194-0.724-0.29-1.159-0.29c-0.488,0-0.903,0.112-1.245,0.336
		s-0.62,0.523-0.836,0.897C1.958,84.881,1.807,85.3,1.707,85.78c-0.099,0.48-0.149,0.985-0.149,1.514
		c0,0.586,0.053,1.114,0.158,1.587c0.106,0.472,0.273,0.891,0.5,1.257c0.22,0.358,0.497,0.637,0.83,0.839
		c0.333,0.201,0.732,0.302,1.196,0.302c0.435,0,0.827-0.101,1.177-0.305C5.771,90.771,6.055,90.486,6.275,90.119"/>
	<path fill="#FFFFFF" d="M15.923,91.505l-2.105,0.135l-0.092-0.086v-0.561l-0.049-0.012c-0.211,0.236-0.473,0.429-0.783,0.58
		c-0.311,0.15-0.63,0.226-0.96,0.226c-0.341,0-0.671-0.076-0.99-0.229c-0.319-0.152-0.597-0.367-0.832-0.644
		c-0.24-0.28-0.43-0.619-0.57-1.013c-0.14-0.394-0.21-0.83-0.21-1.306c0-0.436,0.075-0.849,0.225-1.239
		c0.15-0.39,0.358-0.732,0.622-1.025c0.248-0.272,0.551-0.49,0.911-0.653c0.359-0.163,0.726-0.244,1.099-0.244
		c0.28,0,0.556,0.036,0.826,0.107c0.27,0.071,0.503,0.162,0.698,0.272v-2.097c0-0.172-0.028-0.327-0.085-0.468
		c-0.057-0.141-0.136-0.248-0.238-0.321c-0.114-0.078-0.268-0.134-0.461-0.168c-0.193-0.035-0.402-0.06-0.625-0.076v-0.378
		l2.465-0.135l0.092,0.092v8.111c0,0.142,0.028,0.263,0.083,0.363c0.055,0.1,0.135,0.184,0.241,0.253
		c0.077,0.049,0.189,0.08,0.336,0.092c0.146,0.013,0.28,0.021,0.403,0.025V91.505z M13.714,90.449v-3.521
		c-0.033-0.106-0.085-0.219-0.158-0.341c-0.073-0.122-0.164-0.234-0.274-0.336c-0.118-0.102-0.256-0.186-0.414-0.253
		c-0.158-0.067-0.343-0.101-0.554-0.101c-0.243,0-0.468,0.063-0.673,0.189c-0.205,0.126-0.387,0.307-0.545,0.543
		c-0.15,0.228-0.269,0.518-0.356,0.869c-0.087,0.352-0.131,0.742-0.131,1.169c0,0.341,0.032,0.652,0.097,0.93
		c0.065,0.278,0.174,0.538,0.329,0.778c0.142,0.228,0.324,0.411,0.545,0.549c0.221,0.139,0.485,0.207,0.789,0.207
		c0.324,0,0.593-0.07,0.807-0.213C13.388,90.776,13.568,90.62,13.714,90.449"/>
	<path fill="#FFFFFF" d="M22.38,88.545c0,0.424-0.067,0.839-0.202,1.248c-0.135,0.409-0.326,0.756-0.575,1.04
		c-0.281,0.326-0.607,0.568-0.977,0.726c-0.37,0.159-0.786,0.238-1.246,0.238c-0.383,0-0.747-0.072-1.094-0.216
		c-0.346-0.145-0.654-0.355-0.922-0.632c-0.265-0.273-0.476-0.605-0.632-0.998c-0.157-0.392-0.235-0.833-0.235-1.321
		c0-0.94,0.273-1.709,0.822-2.306c0.548-0.598,1.265-0.897,2.154-0.897c0.843,0,1.538,0.283,2.086,0.851
		C22.106,86.846,22.38,87.601,22.38,88.545 M21.116,88.557c0-0.305-0.031-0.628-0.092-0.967c-0.061-0.339-0.153-0.627-0.275-0.864
		c-0.131-0.252-0.302-0.454-0.514-0.607c-0.212-0.153-0.471-0.229-0.777-0.229c-0.314,0-0.582,0.077-0.804,0.232
		c-0.222,0.155-0.402,0.366-0.541,0.635c-0.131,0.248-0.223,0.531-0.275,0.848c-0.053,0.317-0.08,0.625-0.08,0.922
		c0,0.391,0.031,0.752,0.095,1.084c0.063,0.331,0.164,0.627,0.302,0.888c0.139,0.26,0.313,0.465,0.523,0.614
		c0.21,0.148,0.47,0.223,0.779,0.223c0.51,0,0.913-0.246,1.211-0.738C20.967,90.103,21.116,89.423,21.116,88.557"/>
	<path fill="#FFFFFF" d="M29.892,91.614H26.95v-0.403c0.094-0.008,0.197-0.016,0.309-0.025c0.112-0.008,0.204-0.024,0.277-0.048
		c0.114-0.036,0.199-0.101,0.253-0.192c0.055-0.091,0.083-0.211,0.083-0.357v-3.094c0-0.427-0.101-0.757-0.303-0.989
		c-0.202-0.232-0.448-0.348-0.737-0.348c-0.216,0-0.414,0.033-0.593,0.101c-0.179,0.067-0.338,0.15-0.477,0.247
		c-0.135,0.094-0.241,0.194-0.321,0.302c-0.079,0.108-0.138,0.195-0.174,0.26v3.46c0,0.138,0.028,0.252,0.085,0.341
		c0.057,0.09,0.142,0.159,0.256,0.208c0.085,0.04,0.178,0.071,0.277,0.092c0.1,0.02,0.202,0.034,0.309,0.042v0.403h-2.947v-0.403
		c0.093-0.008,0.19-0.016,0.29-0.025c0.099-0.008,0.186-0.024,0.259-0.048c0.114-0.036,0.199-0.101,0.253-0.192
		c0.055-0.092,0.082-0.211,0.082-0.357v-3.712c0-0.138-0.03-0.265-0.089-0.381c-0.058-0.116-0.141-0.211-0.247-0.283
		c-0.077-0.049-0.168-0.084-0.275-0.107c-0.106-0.022-0.219-0.037-0.341-0.045v-0.403l2.001-0.135l0.085,0.086v0.848h0.03
		c0.098-0.097,0.22-0.214,0.366-0.351c0.146-0.136,0.285-0.247,0.415-0.333c0.15-0.097,0.33-0.179,0.537-0.244
		c0.207-0.065,0.441-0.097,0.702-0.097c0.578,0,1.006,0.18,1.285,0.539c0.278,0.361,0.418,0.839,0.418,1.438v3.131
		c0,0.142,0.024,0.257,0.073,0.344c0.049,0.087,0.132,0.155,0.25,0.204c0.097,0.041,0.182,0.069,0.253,0.086
		c0.071,0.016,0.17,0.028,0.296,0.036V91.614z"/>
	<path fill="#FFFFFF" d="M34.347,91.352c-0.265,0.11-0.515,0.202-0.751,0.278c-0.236,0.075-0.525,0.113-0.867,0.113
		c-0.504,0-0.859-0.128-1.065-0.382c-0.206-0.255-0.308-0.614-0.308-1.077v-4.076H30.27v-0.586h1.111v-1.874h1.111v1.874h1.727
		v0.586h-1.715v3.362c0,0.252,0.009,0.463,0.028,0.632c0.018,0.168,0.062,0.316,0.131,0.443c0.065,0.118,0.163,0.207,0.294,0.268
		c0.13,0.061,0.305,0.092,0.525,0.092c0.101,0,0.251-0.009,0.448-0.028c0.197-0.018,0.337-0.041,0.418-0.07V91.352z"/>
	<path fill="#FFFFFF" d="M40.816,88.545c0,0.424-0.067,0.839-0.202,1.248c-0.135,0.409-0.326,0.756-0.575,1.04
		c-0.281,0.326-0.607,0.568-0.977,0.726c-0.37,0.159-0.786,0.238-1.246,0.238c-0.383,0-0.747-0.072-1.094-0.216
		c-0.346-0.145-0.654-0.355-0.922-0.632c-0.265-0.273-0.476-0.605-0.632-0.998c-0.157-0.392-0.235-0.833-0.235-1.321
		c0-0.94,0.273-1.709,0.822-2.306c0.548-0.598,1.265-0.897,2.154-0.897c0.843,0,1.538,0.283,2.086,0.851
		C40.542,86.846,40.816,87.601,40.816,88.545 M39.552,88.557c0-0.305-0.031-0.628-0.092-0.967c-0.061-0.339-0.153-0.627-0.275-0.864
		c-0.131-0.252-0.302-0.454-0.514-0.607c-0.212-0.153-0.471-0.229-0.777-0.229c-0.314,0-0.582,0.077-0.804,0.232
		c-0.222,0.155-0.402,0.366-0.541,0.635c-0.131,0.248-0.223,0.531-0.275,0.848c-0.053,0.317-0.08,0.625-0.08,0.922
		c0,0.391,0.031,0.752,0.095,1.084c0.063,0.331,0.164,0.627,0.302,0.888c0.139,0.26,0.313,0.465,0.523,0.614
		c0.21,0.148,0.47,0.223,0.779,0.223c0.51,0,0.913-0.246,1.211-0.738C39.403,90.103,39.552,89.423,39.552,88.557"/>
	<path fill="#FFFFFF" d="M44.501,91.614h-2.935v-0.403c0.093-0.008,0.193-0.017,0.299-0.028c0.106-0.01,0.193-0.025,0.263-0.045
		c0.114-0.036,0.199-0.101,0.256-0.192c0.057-0.092,0.085-0.211,0.085-0.358v-6.974c0-0.146-0.031-0.283-0.094-0.412
		c-0.063-0.128-0.146-0.229-0.247-0.302c-0.074-0.049-0.207-0.094-0.403-0.135c-0.195-0.041-0.352-0.065-0.47-0.073v-0.391
		l2.264-0.134l0.085,0.091v8.257c0,0.143,0.026,0.26,0.079,0.351c0.053,0.092,0.138,0.162,0.256,0.211
		c0.09,0.04,0.178,0.071,0.265,0.092c0.087,0.02,0.186,0.034,0.296,0.042V91.614z"/>
	<path fill="#FFFFFF" d="M51.128,88.545c0,0.423-0.067,0.839-0.201,1.248c-0.135,0.409-0.326,0.756-0.575,1.041
		c-0.281,0.326-0.607,0.567-0.977,0.726c-0.37,0.158-0.786,0.238-1.246,0.238c-0.382,0-0.747-0.072-1.093-0.216
		c-0.346-0.145-0.654-0.355-0.923-0.632c-0.264-0.272-0.475-0.605-0.632-0.998c-0.157-0.393-0.235-0.833-0.235-1.321
		c0-0.94,0.273-1.709,0.822-2.307c0.548-0.598,1.265-0.897,2.153-0.897c0.843,0,1.539,0.284,2.086,0.852
		C50.854,86.845,51.128,87.601,51.128,88.545 M49.866,88.557c0-0.305-0.031-0.628-0.092-0.968c-0.062-0.339-0.153-0.627-0.275-0.863
		c-0.13-0.252-0.302-0.454-0.514-0.607c-0.212-0.153-0.471-0.229-0.776-0.229c-0.314,0-0.582,0.077-0.804,0.232
		s-0.403,0.366-0.541,0.634c-0.13,0.248-0.222,0.531-0.275,0.849c-0.053,0.317-0.079,0.625-0.079,0.922
		c0,0.39,0.031,0.752,0.095,1.083c0.063,0.332,0.164,0.627,0.302,0.888c0.139,0.261,0.313,0.465,0.523,0.614
		c0.21,0.148,0.47,0.223,0.779,0.223c0.509,0,0.913-0.246,1.211-0.739C49.717,90.103,49.866,89.424,49.866,88.557 M49.359,82.705
		c0,0.155-0.036,0.281-0.107,0.378c-0.071,0.097-0.176,0.201-0.314,0.311c-0.204,0.163-0.469,0.37-0.796,0.622
		c-0.327,0.253-0.681,0.527-1.059,0.824l-0.231-0.195c0.366-0.541,0.622-0.922,0.766-1.144c0.145-0.221,0.3-0.467,0.467-0.735
		c0.126-0.207,0.248-0.349,0.366-0.424c0.118-0.075,0.255-0.113,0.409-0.113c0.146,0,0.266,0.05,0.36,0.15
		C49.312,82.478,49.359,82.587,49.359,82.705"/>
	<path fill="#FFFFFF" d="M57.152,90.992c0.163,0.155,0.291,0.33,0.385,0.525c0.094,0.195,0.14,0.438,0.14,0.726
		c0,0.289-0.063,0.561-0.189,0.815c-0.126,0.255-0.317,0.475-0.573,0.663c-0.273,0.191-0.598,0.339-0.977,0.446
		c-0.378,0.106-0.846,0.158-1.403,0.158c-0.912,0-1.593-0.133-2.045-0.4c-0.451-0.267-0.678-0.656-0.678-1.169
		c0-0.415,0.163-0.742,0.488-0.982c0.326-0.24,0.74-0.37,1.245-0.391v-0.085c-0.123-0.037-0.248-0.082-0.378-0.138
		c-0.13-0.055-0.243-0.119-0.336-0.192c-0.106-0.085-0.192-0.186-0.256-0.302c-0.065-0.116-0.097-0.26-0.097-0.43
		c0-0.216,0.076-0.414,0.229-0.595c0.153-0.181,0.383-0.337,0.693-0.467v-0.091c-0.391-0.184-0.694-0.418-0.91-0.705
		c-0.216-0.287-0.324-0.619-0.324-0.998c0-0.57,0.213-1.038,0.638-1.404c0.425-0.366,0.969-0.549,1.632-0.549
		c0.183,0,0.365,0.018,0.546,0.055c0.181,0.036,0.365,0.083,0.552,0.14h2.099v0.586h-1.416v0.036c0.15,0.175,0.262,0.368,0.336,0.58
		c0.073,0.212,0.11,0.419,0.11,0.623c0,0.529-0.215,0.976-0.644,1.342c-0.429,0.366-0.928,0.549-1.498,0.549h-0.739
		c-0.094,0.033-0.191,0.092-0.293,0.177c-0.102,0.085-0.152,0.201-0.152,0.348c0,0.151,0.043,0.266,0.128,0.345
		c0.086,0.079,0.19,0.133,0.311,0.162c0.118,0.033,0.256,0.053,0.412,0.061s0.318,0.014,0.485,0.018
		c0.179,0.004,0.424,0.016,0.735,0.037c0.311,0.02,0.532,0.032,0.662,0.036c0.187,0.008,0.375,0.053,0.564,0.134
		C56.826,90.738,56.997,90.85,57.152,90.992 M56.676,92.469c0-0.228-0.053-0.415-0.158-0.562c-0.106-0.146-0.267-0.246-0.482-0.299
		c-0.114-0.016-0.348-0.035-0.702-0.055c-0.354-0.02-0.765-0.03-1.233-0.03c-0.439,0.085-0.752,0.229-0.937,0.43
		c-0.185,0.202-0.278,0.461-0.278,0.778c0,0.142,0.031,0.278,0.092,0.409c0.061,0.13,0.167,0.25,0.317,0.36
		c0.142,0.106,0.333,0.192,0.573,0.26c0.24,0.067,0.533,0.101,0.879,0.101c0.598,0,1.069-0.115,1.412-0.345
		C56.504,93.286,56.676,92.937,56.676,92.469 M55.504,87.422c0-0.476-0.097-0.856-0.29-1.138c-0.194-0.283-0.465-0.424-0.815-0.424
		c-0.192,0-0.355,0.04-0.492,0.119c-0.136,0.079-0.247,0.192-0.333,0.339c-0.081,0.134-0.14,0.295-0.174,0.485
		c-0.034,0.189-0.052,0.383-0.052,0.582c0,0.452,0.099,0.82,0.296,1.105c0.197,0.285,0.453,0.427,0.766,0.427
		c0.35,0,0.62-0.141,0.809-0.424C55.41,88.21,55.504,87.853,55.504,87.422"/>
	<path fill="#FFFFFF" d="M61.277,91.614h-2.905v-0.402c0.094-0.008,0.19-0.016,0.29-0.025c0.099-0.008,0.186-0.025,0.259-0.049
		c0.114-0.036,0.199-0.101,0.253-0.192c0.055-0.092,0.082-0.211,0.082-0.357v-3.712c0-0.13-0.03-0.249-0.089-0.356
		c-0.058-0.108-0.141-0.198-0.247-0.271c-0.077-0.049-0.189-0.091-0.336-0.125c-0.146-0.035-0.28-0.056-0.402-0.064v-0.403
		l2.123-0.135l0.085,0.086v4.907c0,0.142,0.027,0.26,0.082,0.354c0.055,0.094,0.14,0.163,0.258,0.207
		c0.089,0.036,0.175,0.066,0.26,0.089c0.085,0.023,0.18,0.038,0.285,0.046V91.614z M60.514,83.15c0,0.232-0.076,0.434-0.229,0.607
		c-0.153,0.173-0.341,0.259-0.564,0.259c-0.207,0-0.387-0.082-0.54-0.247c-0.153-0.165-0.229-0.353-0.229-0.564
		c0-0.224,0.076-0.419,0.229-0.586c0.153-0.167,0.333-0.25,0.54-0.25c0.232,0,0.422,0.079,0.571,0.235
		C60.44,82.761,60.514,82.943,60.514,83.15"/>
	<path fill="#FFFFFF" d="M64.804,91.773c-0.871,0-1.552-0.289-2.044-0.866c-0.493-0.578-0.739-1.353-0.739-2.326
		c0-0.422,0.066-0.818,0.199-1.187c0.132-0.368,0.324-0.702,0.576-1.004c0.24-0.289,0.541-0.522,0.903-0.698
		c0.362-0.177,0.757-0.266,1.184-0.266c0.59,0,1.07,0.141,1.44,0.424c0.37,0.283,0.556,0.668,0.556,1.157
		c0,0.204-0.049,0.383-0.146,0.54c-0.097,0.157-0.258,0.235-0.482,0.235c-0.24,0-0.426-0.061-0.558-0.183
		c-0.133-0.121-0.199-0.257-0.199-0.407c0-0.182,0.025-0.37,0.073-0.563c0.049-0.192,0.077-0.334,0.086-0.422
		c-0.074-0.126-0.182-0.21-0.326-0.253c-0.144-0.043-0.299-0.064-0.465-0.064c-0.195,0-0.381,0.042-0.557,0.125
		c-0.177,0.084-0.348,0.237-0.515,0.461c-0.15,0.204-0.272,0.478-0.365,0.824c-0.093,0.346-0.14,0.759-0.14,1.238
		c0,0.757,0.167,1.375,0.502,1.852c0.336,0.478,0.775,0.717,1.319,0.717c0.394,0,0.724-0.096,0.99-0.289
		c0.266-0.192,0.513-0.48,0.74-0.865l0.39,0.256c-0.268,0.48-0.622,0.86-1.062,1.141C65.726,91.633,65.272,91.773,64.804,91.773"/>
	<path fill="#FFFFFF" d="M73.568,88.545c0,0.424-0.067,0.839-0.202,1.248c-0.135,0.409-0.326,0.756-0.575,1.04
		c-0.281,0.326-0.607,0.568-0.977,0.726c-0.37,0.159-0.786,0.238-1.246,0.238c-0.383,0-0.747-0.072-1.094-0.216
		c-0.346-0.145-0.654-0.355-0.922-0.632c-0.265-0.273-0.476-0.605-0.632-0.998c-0.157-0.392-0.235-0.833-0.235-1.321
		c0-0.94,0.273-1.709,0.822-2.306c0.548-0.598,1.265-0.897,2.154-0.897c0.843,0,1.538,0.283,2.086,0.851
		C73.294,86.846,73.568,87.601,73.568,88.545 M72.305,88.557c0-0.305-0.031-0.628-0.092-0.967c-0.061-0.339-0.153-0.627-0.275-0.864
		c-0.131-0.252-0.302-0.454-0.514-0.607c-0.212-0.153-0.471-0.229-0.777-0.229c-0.314,0-0.582,0.077-0.804,0.232
		c-0.222,0.155-0.402,0.366-0.541,0.635c-0.131,0.248-0.223,0.531-0.275,0.848c-0.053,0.317-0.08,0.625-0.08,0.922
		c0,0.391,0.031,0.752,0.095,1.084c0.063,0.331,0.164,0.627,0.302,0.888c0.139,0.26,0.313,0.465,0.523,0.614
		c0.21,0.148,0.47,0.223,0.779,0.223c0.51,0,0.913-0.246,1.211-0.738C72.156,90.103,72.305,89.423,72.305,88.557"/>
	<path fill="#FFFFFF" d="M78.407,88.667c0.167,0.146,0.295,0.315,0.385,0.507c0.089,0.191,0.134,0.425,0.134,0.702
		c0,0.558-0.208,1.013-0.625,1.367c-0.417,0.354-0.957,0.531-1.621,0.531c-0.349,0-0.672-0.063-0.967-0.189
		c-0.295-0.126-0.505-0.243-0.632-0.348l-0.122,0.397h-0.458L74.44,89.54h0.421c0.033,0.16,0.102,0.345,0.207,0.558
		c0.106,0.212,0.234,0.404,0.385,0.575c0.159,0.18,0.349,0.331,0.571,0.454c0.222,0.122,0.471,0.184,0.747,0.184
		c0.391,0,0.692-0.089,0.903-0.267c0.211-0.178,0.317-0.433,0.317-0.764c0-0.171-0.033-0.318-0.101-0.443
		c-0.067-0.124-0.166-0.233-0.296-0.327c-0.135-0.093-0.299-0.177-0.495-0.253c-0.195-0.075-0.412-0.15-0.652-0.223
		c-0.191-0.057-0.404-0.136-0.638-0.236c-0.234-0.099-0.434-0.216-0.601-0.351c-0.179-0.142-0.326-0.317-0.439-0.525
		c-0.114-0.207-0.171-0.451-0.171-0.732c0-0.492,0.183-0.909,0.549-1.251c0.366-0.341,0.856-0.512,1.471-0.512
		c0.236,0,0.476,0.03,0.723,0.091c0.246,0.061,0.446,0.135,0.601,0.22l0.14-0.317h0.44l0.091,1.935h-0.421
		c-0.085-0.433-0.27-0.786-0.552-1.057c-0.283-0.272-0.628-0.407-1.035-0.407c-0.334,0-0.596,0.084-0.787,0.251
		c-0.191,0.168-0.287,0.371-0.287,0.609c0,0.183,0.032,0.335,0.095,0.458c0.063,0.122,0.158,0.226,0.284,0.311
		c0.123,0.081,0.276,0.158,0.461,0.229c0.185,0.071,0.414,0.152,0.686,0.241c0.269,0.085,0.522,0.185,0.76,0.299
		C78.056,88.402,78.252,88.529,78.407,88.667"/>
</g>
</svg>
