<?xml version="1.0" encoding="utf-8"?>
<!-- Generator: Adobe Illustrator 17.0.0, SVG Export Plug-In . SVG Version: 6.00 Build 0)  -->
<!DOCTYPE svg PUBLIC "-//W3C//DTD SVG 1.1//EN" "http://www.w3.org/Graphics/SVG/1.1/DTD/svg11.dtd">
<svg version="1.1" id="Capa_1" xmlns="http://www.w3.org/2000/svg" xmlns:xlink="http://www.w3.org/1999/xlink" x="0px" y="0px"
	 width="175.887px" height="55px" viewBox="0 0 175.887 55" enable-background="new 0 0 175.887 55" xml:space="preserve">
<title>Logo-white</title>
<desc>Created with Sketch.</desc>
<g>
	<defs>
		<path id="SVGID_1_" d="M-441.415-1804.684h-9.718v-1.348c0.312-0.027,0.634-0.055,0.969-0.082
			c0.333-0.027,0.622-0.082,0.868-0.161c0.381-0.122,0.662-0.338,0.847-0.644c0.183-0.302,0.276-0.701,0.276-1.19v-12.401
			c0-0.437-0.099-0.832-0.295-1.193c-0.198-0.361-0.474-0.661-0.828-0.909c-0.259-0.16-0.632-0.3-1.123-0.416
			c-0.489-0.114-0.938-0.184-1.347-0.213v-1.346l7.107-0.448l0.285,0.285v16.397c0,0.475,0.091,0.867,0.272,1.182
			c0.185,0.312,0.472,0.54,0.864,0.692c0.297,0.124,0.586,0.222,0.872,0.297c0.284,0.074,0.601,0.125,0.952,0.152V-1804.684z
			 M-443.967-1832.967c0,0.772-0.255,1.45-0.765,2.026c-0.51,0.578-1.14,0.869-1.89,0.869c-0.693,0-1.294-0.277-1.806-0.825
			c-0.51-0.551-0.767-1.182-0.767-1.889c0-0.745,0.257-1.399,0.767-1.958c0.512-0.555,1.113-0.834,1.806-0.834
			c0.778,0,1.414,0.262,1.911,0.785C-444.214-1834.271-443.967-1833.661-443.967-1832.967z"/>
	</defs>
	<clipPath id="SVGID_2_">
		<use xlink:href="#SVGID_1_"  overflow="visible"/>
	</clipPath>
	<g clip-path="url(#SVGID_2_)">
		<defs>
			<rect id="SVGID_3_" x="-565" y="-1857.61" width="1440" height="3809"/>
		</defs>
		<clipPath id="SVGID_4_">
			<use xlink:href="#SVGID_3_"  overflow="visible"/>
		</clipPath>
		<rect x="-456.766" y="-1840.578" clip-path="url(#SVGID_4_)" fill="#FEFEFE" width="20.352" height="40.894"/>
	</g>
</g>
<g>
	<defs>
		<path id="SVGID_5_" d="M-419.277-1814.942c0,1.412-0.225,2.802-0.674,4.17c-0.453,1.366-1.091,2.526-1.922,3.476
			c-0.942,1.087-2.031,1.897-3.272,2.425c-1.241,0.532-2.63,0.794-4.17,0.794c-1.281,0-2.501-0.24-3.66-0.722
			c-1.155-0.481-2.185-1.188-3.087-2.108c-0.885-0.912-1.591-2.022-2.115-3.338c-0.523-1.309-0.788-2.782-0.788-4.413
			c0-3.14,0.917-5.711,2.752-7.709c1.831-1.998,4.235-2.999,7.204-2.999c2.819,0,5.148,0.95,6.981,2.845
			C-420.195-1820.621-419.277-1818.097-419.277-1814.942 M-423.504-1814.9c0-1.019-0.105-2.098-0.308-3.233
			s-0.512-2.098-0.919-2.889c-0.438-0.84-1.009-1.517-1.719-2.028c-0.71-0.509-1.574-0.762-2.6-0.762
			c-1.049,0-1.945,0.257-2.689,0.775c-0.742,0.513-1.347,1.22-1.81,2.119c-0.436,0.831-0.744,1.775-0.921,2.834
			c-0.177,1.062-0.265,2.087-0.265,3.079c0,1.308,0.105,2.515,0.316,3.621c0.211,1.11,0.55,2.096,1.011,2.967
			c0.466,0.87,1.049,1.553,1.751,2.047c0.702,0.5,1.572,0.747,2.607,0.747c1.703,0,3.057-0.821,4.052-2.467
			C-424.003-1809.734-423.504-1812.009-423.504-1814.9"/>
	</defs>
	<clipPath id="SVGID_6_">
		<use xlink:href="#SVGID_5_"  overflow="visible"/>
	</clipPath>
	<g clip-path="url(#SVGID_6_)">
		<defs>
			<rect id="SVGID_7_" x="-565" y="-1857.61" width="1440" height="3809"/>
		</defs>
		<clipPath id="SVGID_8_">
			<use xlink:href="#SVGID_7_"  overflow="visible"/>
		</clipPath>
		<rect x="-443.964" y="-1830.365" clip-path="url(#SVGID_8_)" fill="#FEFEFE" width="29.687" height="31.289"/>
	</g>
</g>
<g>
	<defs>
		<path id="SVGID_9_" d="M-412.306-1819.77c2.299,2.953,3.038,6.329,2.217,10.145c-0.824,3.809-3.199,7.677-7.129,11.598
			c-3.991,3.989-7.906,6.403-11.737,7.239c-3.829,0.834-7.234,0.118-10.207-2.163l1.197-1.196c2.187,1.505,4.77,1.733,7.754,0.677
			s6.402-3.509,10.253-7.352c3.668-3.662,6.047-6.983,7.139-9.961c1.092-2.974,0.87-5.574-0.67-7.806L-412.306-1819.77z"/>
	</defs>
	<clipPath id="SVGID_10_">
		<use xlink:href="#SVGID_9_"  overflow="visible"/>
	</clipPath>
	<g clip-path="url(#SVGID_10_)">
		<defs>
			<rect id="SVGID_11_" x="-565" y="-1857.61" width="1440" height="3809"/>
		</defs>
		<clipPath id="SVGID_12_">
			<use xlink:href="#SVGID_11_"  overflow="visible"/>
		</clipPath>
		<rect x="-444.163" y="-1824.77" clip-path="url(#SVGID_12_)" fill="#FEFEFE" width="39.397" height="39.319"/>
	</g>
</g>
<g>
	<defs>
		<path id="SVGID_13_" d="M-457.416-1838.169c3.928-3.923,7.801-6.297,11.617-7.114c3.816-0.825,7.204-0.087,10.158,2.212
			l-1.184,1.182c-2.234-1.539-4.84-1.762-7.818-0.673c-2.979,1.093-6.303,3.469-9.971,7.129c-3.848,3.849-6.305,7.26-7.362,10.24
			c-1.06,2.978-0.834,5.561,0.678,7.739l-1.199,1.199c-2.282-2.969-3.001-6.367-2.166-10.195
			C-463.826-1830.274-461.409-1834.18-457.416-1838.169"/>
	</defs>
	<clipPath id="SVGID_14_">
		<use xlink:href="#SVGID_13_"  overflow="visible"/>
	</clipPath>
	<g clip-path="url(#SVGID_14_)">
		<defs>
			<rect id="SVGID_15_" x="-565" y="-1857.61" width="1440" height="3809"/>
		</defs>
		<clipPath id="SVGID_16_">
			<use xlink:href="#SVGID_15_"  overflow="visible"/>
		</clipPath>
		<rect x="-470" y="-1850.61" clip-path="url(#SVGID_16_)" fill="#FEFEFE" width="39.359" height="39.356"/>
	</g>
</g>
<g>
	<defs>
		<path id="SVGID_17_" d="M-397.012-1821.92h-5.618v-0.623c0.16-0.011,0.388-0.031,0.687-0.051c0.299-0.025,0.51-0.061,0.632-0.106
			c0.194-0.076,0.335-0.181,0.422-0.312c0.088-0.133,0.131-0.314,0.131-0.547v-9.026c0-0.205-0.03-0.376-0.097-0.515
			c-0.063-0.137-0.215-0.253-0.457-0.344c-0.175-0.072-0.396-0.139-0.662-0.199c-0.268-0.061-0.485-0.099-0.657-0.11v-0.623h5.618
			v0.623c-0.181,0.006-0.398,0.028-0.651,0.068c-0.251,0.036-0.472,0.086-0.659,0.144c-0.223,0.068-0.373,0.182-0.449,0.34
			c-0.076,0.158-0.114,0.335-0.114,0.528v9.015c0,0.196,0.044,0.365,0.128,0.513c0.086,0.152,0.23,0.268,0.436,0.357
			c0.122,0.046,0.324,0.099,0.601,0.154c0.278,0.055,0.514,0.086,0.708,0.091V-1821.92z"/>
	</defs>
	<clipPath id="SVGID_18_">
		<use xlink:href="#SVGID_17_"  overflow="visible"/>
	</clipPath>
	<g clip-path="url(#SVGID_18_)">
		<defs>
			<rect id="SVGID_19_" x="-565" y="-1857.61" width="1440" height="3809"/>
		</defs>
		<clipPath id="SVGID_20_">
			<use xlink:href="#SVGID_19_"  overflow="visible"/>
		</clipPath>
		<rect x="-407.631" y="-1839.378" clip-path="url(#SVGID_20_)" fill="#FEFEFE" width="15.618" height="22.458"/>
	</g>
</g>
<g>
	<defs>
		<path id="SVGID_21_" d="M-386.102-1821.92h-4.238v-0.58c0.135-0.011,0.284-0.023,0.445-0.034c0.16-0.011,0.295-0.036,0.4-0.07
			c0.164-0.053,0.285-0.146,0.365-0.277c0.078-0.131,0.118-0.302,0.118-0.513v-4.451c0-0.614-0.145-1.087-0.436-1.422
			c-0.291-0.335-0.645-0.502-1.062-0.502c-0.31,0-0.596,0.049-0.855,0.146c-0.259,0.097-0.487,0.215-0.687,0.355
			c-0.194,0.135-0.348,0.279-0.464,0.433c-0.114,0.156-0.198,0.281-0.249,0.374v4.978c0,0.198,0.04,0.363,0.122,0.492
			c0.082,0.127,0.206,0.228,0.369,0.298c0.124,0.057,0.257,0.101,0.4,0.131c0.145,0.031,0.293,0.049,0.445,0.061v0.58h-4.246v-0.58
			c0.135-0.011,0.274-0.023,0.417-0.034c0.145-0.011,0.268-0.036,0.373-0.07c0.166-0.053,0.287-0.146,0.365-0.277
			c0.08-0.131,0.12-0.302,0.12-0.511v-5.341c0-0.198-0.044-0.382-0.128-0.547c-0.086-0.167-0.206-0.302-0.358-0.409
			c-0.11-0.07-0.242-0.12-0.394-0.154c-0.152-0.032-0.318-0.053-0.493-0.065v-0.58l2.883-0.192l0.124,0.122v1.22h0.044
			c0.141-0.141,0.316-0.308,0.527-0.506c0.211-0.194,0.411-0.354,0.598-0.479c0.217-0.139,0.474-0.256,0.775-0.35
			c0.299-0.093,0.636-0.141,1.011-0.141c0.832,0,1.448,0.258,1.85,0.775c0.402,0.519,0.601,1.209,0.601,2.068v4.506
			c0,0.203,0.036,0.369,0.107,0.494c0.07,0.127,0.19,0.222,0.36,0.295c0.141,0.059,0.263,0.099,0.365,0.122
			c0.103,0.025,0.244,0.042,0.426,0.053V-1821.92z"/>
	</defs>
	<clipPath id="SVGID_22_">
		<use xlink:href="#SVGID_21_"  overflow="visible"/>
	</clipPath>
	<g clip-path="url(#SVGID_22_)">
		<defs>
			<rect id="SVGID_23_" x="-565" y="-1857.61" width="1440" height="3809"/>
		</defs>
		<clipPath id="SVGID_24_">
			<use xlink:href="#SVGID_23_"  overflow="visible"/>
		</clipPath>
		<rect x="-400.773" y="-1835.812" clip-path="url(#SVGID_24_)" fill="#FEFEFE" width="19.67" height="18.893"/>
	</g>
</g>
<g>
	<defs>
		<path id="SVGID_25_" d="M-379.317-1826.161c0.24,0.211,0.426,0.454,0.554,0.73c0.129,0.274,0.194,0.612,0.194,1.009
			c0,0.802-0.301,1.458-0.902,1.965c-0.599,0.511-1.378,0.766-2.333,0.766c-0.504,0-0.969-0.091-1.393-0.274
			c-0.424-0.181-0.729-0.348-0.91-0.5l-0.175,0.57h-0.66l-0.088-3.011h0.605c0.048,0.228,0.148,0.496,0.301,0.802
			c0.152,0.304,0.335,0.582,0.554,0.829c0.228,0.257,0.502,0.475,0.82,0.65c0.32,0.177,0.679,0.266,1.077,0.266
			c0.563,0,0.997-0.127,1.302-0.384c0.305-0.257,0.457-0.623,0.457-1.1c0-0.245-0.048-0.458-0.145-0.637
			c-0.097-0.179-0.24-0.335-0.426-0.469c-0.194-0.135-0.43-0.257-0.712-0.365c-0.282-0.106-0.596-0.215-0.94-0.321
			c-0.276-0.082-0.582-0.194-0.919-0.336c-0.337-0.144-0.626-0.312-0.866-0.505c-0.259-0.203-0.47-0.456-0.634-0.755
			c-0.164-0.298-0.246-0.65-0.246-1.053c0-0.709,0.263-1.309,0.792-1.8c0.527-0.492,1.233-0.738,2.118-0.738
			c0.339,0,0.687,0.044,1.041,0.131s0.643,0.194,0.866,0.315l0.202-0.456h0.634l0.131,2.784h-0.607
			c-0.122-0.623-0.388-1.131-0.796-1.522c-0.405-0.39-0.904-0.587-1.488-0.587c-0.482,0-0.858,0.122-1.134,0.365
			c-0.276,0.241-0.413,0.532-0.413,0.874c0,0.262,0.046,0.483,0.135,0.658c0.091,0.177,0.228,0.325,0.409,0.449
			c0.177,0.116,0.398,0.226,0.664,0.331c0.266,0.101,0.596,0.217,0.988,0.344c0.388,0.125,0.754,0.268,1.096,0.432
			C-379.823-1826.539-379.539-1826.358-379.317-1826.161"/>
	</defs>
	<clipPath id="SVGID_26_">
		<use xlink:href="#SVGID_25_"  overflow="visible"/>
	</clipPath>
	<g clip-path="url(#SVGID_26_)">
		<defs>
			<rect id="SVGID_27_" x="-565" y="-1857.61" width="1440" height="3809"/>
		</defs>
		<clipPath id="SVGID_28_">
			<use xlink:href="#SVGID_27_"  overflow="visible"/>
		</clipPath>
		<rect x="-390.03" y="-1835.83" clip-path="url(#SVGID_28_)" fill="#FEFEFE" width="16.461" height="19.14"/>
	</g>
</g>
<g>
	<defs>
		<path id="SVGID_29_" d="M-371.905-1822.296c-0.381,0.158-0.742,0.291-1.081,0.399c-0.341,0.108-0.756,0.162-1.249,0.162
			c-0.727,0-1.239-0.182-1.534-0.547c-0.297-0.367-0.443-0.884-0.443-1.551v-5.865h-1.564v-0.842h1.599v-2.695h1.601v2.695h2.488
			v0.842h-2.47v4.837c0,0.365,0.013,0.667,0.04,0.91s0.089,0.454,0.188,0.637c0.093,0.169,0.234,0.298,0.423,0.386
			c0.187,0.087,0.44,0.131,0.756,0.131c0.147,0,0.362-0.013,0.647-0.038c0.284-0.027,0.483-0.061,0.601-0.103V-1822.296z"/>
	</defs>
	<clipPath id="SVGID_30_">
		<use xlink:href="#SVGID_29_"  overflow="visible"/>
	</clipPath>
	<g clip-path="url(#SVGID_30_)">
		<defs>
			<rect id="SVGID_31_" x="-565" y="-1857.61" width="1440" height="3809"/>
		</defs>
		<clipPath id="SVGID_32_">
			<use xlink:href="#SVGID_31_"  overflow="visible"/>
		</clipPath>
		<rect x="-382.777" y="-1838.236" clip-path="url(#SVGID_32_)" fill="#FEFEFE" width="15.871" height="21.501"/>
	</g>
</g>
<g>
	<defs>
		<path id="SVGID_33_" d="M-366.841-1821.92h-4.185v-0.578c0.135-0.011,0.274-0.025,0.417-0.036c0.145-0.011,0.268-0.036,0.373-0.07
			c0.166-0.051,0.287-0.145,0.365-0.278c0.08-0.131,0.12-0.302,0.12-0.511v-5.341c0-0.186-0.044-0.357-0.128-0.513
			c-0.086-0.154-0.204-0.285-0.358-0.39c-0.11-0.068-0.272-0.131-0.482-0.181c-0.211-0.047-0.405-0.08-0.58-0.091v-0.58l3.058-0.192
			l0.124,0.122v7.059c0,0.205,0.038,0.373,0.118,0.509c0.078,0.135,0.202,0.234,0.371,0.298c0.128,0.051,0.253,0.095,0.375,0.125
			c0.122,0.034,0.259,0.057,0.411,0.068V-1821.92z M-367.941-1834.095c0,0.333-0.11,0.623-0.329,0.872
			c-0.221,0.249-0.491,0.373-0.813,0.373c-0.299,0-0.56-0.118-0.778-0.354c-0.221-0.238-0.329-0.509-0.329-0.813
			c0-0.321,0.108-0.602,0.329-0.842c0.219-0.24,0.48-0.361,0.778-0.361c0.333,0,0.607,0.114,0.822,0.338
			C-368.047-1834.656-367.941-1834.394-367.941-1834.095z"/>
	</defs>
	<clipPath id="SVGID_34_">
		<use xlink:href="#SVGID_33_"  overflow="visible"/>
	</clipPath>
	<g clip-path="url(#SVGID_34_)">
		<defs>
			<rect id="SVGID_35_" x="-565" y="-1857.61" width="1440" height="3809"/>
		</defs>
		<clipPath id="SVGID_36_">
			<use xlink:href="#SVGID_35_"  overflow="visible"/>
		</clipPath>
		<rect x="-376.298" y="-1840.221" clip-path="url(#SVGID_36_)" fill="#FEFEFE" width="14.457" height="23.3"/>
	</g>
</g>
<g>
	<defs>
		<path id="SVGID_37_" d="M-360.415-1822.296c-0.381,0.158-0.742,0.291-1.081,0.399c-0.341,0.108-0.756,0.162-1.249,0.162
			c-0.727,0-1.239-0.182-1.534-0.547c-0.297-0.367-0.443-0.884-0.443-1.551v-5.865h-1.564v-0.842h1.599v-2.695h1.601v2.695h2.487
			v0.842h-2.47v4.837c0,0.365,0.013,0.667,0.04,0.91c0.027,0.243,0.09,0.454,0.188,0.637c0.093,0.169,0.234,0.298,0.423,0.386
			c0.187,0.087,0.44,0.131,0.756,0.131c0.147,0,0.362-0.013,0.647-0.038c0.284-0.027,0.483-0.061,0.601-0.103V-1822.296z"/>
	</defs>
	<clipPath id="SVGID_38_">
		<use xlink:href="#SVGID_37_"  overflow="visible"/>
	</clipPath>
	<g clip-path="url(#SVGID_38_)">
		<defs>
			<rect id="SVGID_39_" x="-565" y="-1857.61" width="1440" height="3809"/>
		</defs>
		<clipPath id="SVGID_40_">
			<use xlink:href="#SVGID_39_"  overflow="visible"/>
		</clipPath>
		<rect x="-371.287" y="-1838.236" clip-path="url(#SVGID_40_)" fill="#FEFEFE" width="15.871" height="21.501"/>
	</g>
</g>
<g>
	<defs>
		<path id="SVGID_41_" d="M-350.262-1822.077l-2.83,0.194l-0.133-0.124v-1.099h-0.051c-0.141,0.146-0.299,0.304-0.474,0.471
			c-0.175,0.165-0.379,0.317-0.605,0.45c-0.265,0.158-0.518,0.279-0.765,0.361c-0.246,0.082-0.594,0.122-1.045,0.122
			c-0.765,0-1.349-0.249-1.749-0.749c-0.402-0.5-0.601-1.226-0.601-2.18v-4.14c0-0.209-0.04-0.388-0.12-0.53
			c-0.08-0.143-0.196-0.266-0.348-0.373c-0.109-0.068-0.24-0.122-0.4-0.152c-0.158-0.034-0.327-0.053-0.504-0.067v-0.58l2.893-0.209
			l0.131,0.122v6.014c0,0.625,0.141,1.097,0.423,1.412c0.282,0.317,0.618,0.475,1.011,0.475c0.324,0,0.609-0.049,0.862-0.15
			c0.251-0.099,0.462-0.215,0.632-0.35c0.158-0.124,0.299-0.253,0.419-0.39c0.12-0.139,0.211-0.264,0.276-0.382v-4.902
			c0-0.192-0.04-0.363-0.122-0.511c-0.084-0.15-0.198-0.278-0.344-0.382c-0.105-0.072-0.261-0.114-0.47-0.127
			c-0.207-0.015-0.442-0.027-0.699-0.04v-0.58l3.156-0.209l0.133,0.122v6.865c0,0.2,0.04,0.371,0.122,0.509
			c0.082,0.141,0.196,0.26,0.343,0.359c0.107,0.067,0.232,0.106,0.379,0.127c0.147,0.021,0.308,0.034,0.483,0.04V-1822.077z"/>
	</defs>
	<clipPath id="SVGID_42_">
		<use xlink:href="#SVGID_41_"  overflow="visible"/>
	</clipPath>
	<g clip-path="url(#SVGID_42_)">
		<defs>
			<rect id="SVGID_43_" x="-565" y="-1857.61" width="1440" height="3809"/>
		</defs>
		<clipPath id="SVGID_44_">
			<use xlink:href="#SVGID_43_"  overflow="visible"/>
		</clipPath>
		<rect x="-364.888" y="-1835.679" clip-path="url(#SVGID_44_)" fill="#FEFEFE" width="19.627" height="18.978"/>
	</g>
</g>
<g>
	<defs>
		<path id="SVGID_45_" d="M-343.844-1822.296c-0.381,0.158-0.742,0.291-1.081,0.399c-0.341,0.108-0.756,0.162-1.249,0.162
			c-0.727,0-1.239-0.182-1.534-0.547c-0.297-0.367-0.444-0.884-0.444-1.551v-5.865h-1.564v-0.842h1.599v-2.695h1.601v2.695h2.487
			v0.842h-2.47v4.837c0,0.365,0.013,0.667,0.04,0.91c0.027,0.243,0.089,0.454,0.188,0.637c0.093,0.169,0.234,0.298,0.423,0.386
			c0.186,0.087,0.44,0.131,0.756,0.131c0.147,0,0.362-0.013,0.647-0.038c0.284-0.027,0.483-0.061,0.601-0.103V-1822.296z"/>
	</defs>
	<clipPath id="SVGID_46_">
		<use xlink:href="#SVGID_45_"  overflow="visible"/>
	</clipPath>
	<g clip-path="url(#SVGID_46_)">
		<defs>
			<rect id="SVGID_47_" x="-565" y="-1857.61" width="1440" height="3809"/>
		</defs>
		<clipPath id="SVGID_48_">
			<use xlink:href="#SVGID_47_"  overflow="visible"/>
		</clipPath>
		<rect x="-354.715" y="-1838.236" clip-path="url(#SVGID_48_)" fill="#FEFEFE" width="15.871" height="21.501"/>
	</g>
</g>
<g>
	<defs>
		<path id="SVGID_49_" d="M-334.526-1826.336c0,0.61-0.097,1.207-0.289,1.796c-0.194,0.587-0.47,1.087-0.828,1.498
			c-0.405,0.468-0.874,0.813-1.408,1.042c-0.533,0.23-1.132,0.344-1.795,0.344c-0.552,0-1.077-0.105-1.576-0.312
			c-0.499-0.207-0.942-0.509-1.328-0.908c-0.383-0.393-0.685-0.87-0.91-1.435c-0.226-0.564-0.341-1.199-0.341-1.901
			c0-1.351,0.396-2.458,1.184-3.318c0.79-0.861,1.823-1.291,3.102-1.291c1.216,0,2.217,0.409,3.005,1.224
			C-334.92-1828.78-334.526-1827.694-334.526-1826.336 M-336.345-1826.318c0-0.437-0.044-0.903-0.131-1.389
			c-0.089-0.49-0.221-0.905-0.396-1.245c-0.188-0.361-0.436-0.652-0.74-0.872c-0.306-0.22-0.678-0.331-1.119-0.331
			c-0.453,0-0.837,0.112-1.157,0.334c-0.322,0.222-0.581,0.528-0.78,0.914c-0.188,0.355-0.32,0.764-0.396,1.218
			c-0.078,0.458-0.116,0.901-0.116,1.329c0,0.559,0.046,1.079,0.137,1.557c0.091,0.477,0.238,0.903,0.436,1.277
			c0.2,0.374,0.451,0.669,0.754,0.884c0.303,0.213,0.677,0.319,1.123,0.319c0.735,0,1.315-0.354,1.743-1.062
			C-336.559-1824.093-336.345-1825.072-336.345-1826.318"/>
	</defs>
	<clipPath id="SVGID_50_">
		<use xlink:href="#SVGID_49_"  overflow="visible"/>
	</clipPath>
	<g clip-path="url(#SVGID_50_)">
		<defs>
			<rect id="SVGID_51_" x="-565" y="-1857.61" width="1440" height="3809"/>
		</defs>
		<clipPath id="SVGID_52_">
			<use xlink:href="#SVGID_51_"  overflow="visible"/>
		</clipPath>
		<rect x="-348.001" y="-1835.821" clip-path="url(#SVGID_52_)" fill="#FEFEFE" width="18.475" height="19.165"/>
	</g>
</g>
<g>
	<defs>
		<path id="SVGID_53_" d="M-327.555-1826.161c0.24,0.211,0.426,0.454,0.554,0.73c0.129,0.274,0.194,0.612,0.194,1.009
			c0,0.802-0.301,1.458-0.902,1.965c-0.599,0.511-1.378,0.766-2.333,0.766c-0.504,0-0.969-0.091-1.393-0.274
			c-0.424-0.181-0.729-0.348-0.91-0.5l-0.175,0.57h-0.661l-0.087-3.011h0.605c0.048,0.228,0.148,0.496,0.301,0.802
			c0.152,0.304,0.335,0.582,0.554,0.829c0.228,0.257,0.502,0.475,0.82,0.65c0.32,0.177,0.68,0.266,1.077,0.266
			c0.563,0,0.997-0.127,1.302-0.384c0.305-0.257,0.457-0.623,0.457-1.1c0-0.245-0.048-0.458-0.145-0.637
			c-0.097-0.179-0.24-0.335-0.426-0.469c-0.194-0.135-0.43-0.257-0.712-0.365c-0.282-0.106-0.596-0.215-0.94-0.321
			c-0.276-0.082-0.582-0.194-0.919-0.336c-0.337-0.144-0.626-0.312-0.866-0.505c-0.259-0.203-0.47-0.456-0.634-0.755
			c-0.164-0.298-0.245-0.65-0.245-1.053c0-0.709,0.263-1.309,0.792-1.8c0.527-0.492,1.233-0.738,2.118-0.738
			c0.339,0,0.687,0.044,1.041,0.131s0.643,0.194,0.866,0.315l0.202-0.456h0.634l0.131,2.784h-0.607
			c-0.122-0.623-0.388-1.131-0.796-1.522c-0.405-0.39-0.904-0.587-1.488-0.587c-0.482,0-0.858,0.122-1.134,0.365
			c-0.276,0.241-0.413,0.532-0.413,0.874c0,0.262,0.046,0.483,0.135,0.658c0.091,0.177,0.228,0.325,0.409,0.449
			c0.177,0.116,0.398,0.226,0.664,0.331c0.266,0.101,0.596,0.217,0.988,0.344c0.388,0.125,0.754,0.268,1.096,0.432
			C-328.061-1826.539-327.778-1826.358-327.555-1826.161"/>
	</defs>
	<clipPath id="SVGID_54_">
		<use xlink:href="#SVGID_53_"  overflow="visible"/>
	</clipPath>
	<g clip-path="url(#SVGID_54_)">
		<defs>
			<rect id="SVGID_55_" x="-565" y="-1857.61" width="1440" height="3809"/>
		</defs>
		<clipPath id="SVGID_56_">
			<use xlink:href="#SVGID_55_"  overflow="visible"/>
		</clipPath>
		<rect x="-338.268" y="-1835.83" clip-path="url(#SVGID_56_)" fill="#FEFEFE" width="16.461" height="19.14"/>
	</g>
</g>
<g>
	<defs>
		<path id="SVGID_57_" d="M-392.389-1814.739c0.552,0.572,0.982,1.266,1.294,2.075c0.31,0.81,0.464,1.707,0.464,2.689
			c0,0.99-0.158,1.887-0.474,2.695s-0.756,1.496-1.319,2.064c-0.544,0.563-1.178,0.996-1.899,1.3s-1.488,0.456-2.303,0.456
			c-0.868,0-1.669-0.163-2.404-0.488c-0.737-0.325-1.368-0.775-1.894-1.355c-0.529-0.566-0.944-1.258-1.245-2.068
			c-0.303-0.81-0.453-1.676-0.453-2.604c0-1.011,0.158-1.914,0.476-2.706c0.316-0.793,0.752-1.481,1.309-2.058
			c0.55-0.574,1.19-1.015,1.92-1.319c0.729-0.302,1.492-0.456,2.29-0.456c0.826,0,1.606,0.156,2.339,0.466
			S-392.922-1815.302-392.389-1814.739 M-393.698-1805.909c0.329-0.532,0.567-1.137,0.716-1.807c0.15-0.675,0.226-1.425,0.226-2.258
			c0-0.853-0.084-1.638-0.251-2.351c-0.167-0.715-0.413-1.323-0.735-1.826c-0.322-0.498-0.727-0.886-1.212-1.163
			c-0.487-0.279-1.043-0.418-1.671-0.418c-0.702,0-1.302,0.161-1.793,0.485c-0.493,0.321-0.895,0.751-1.205,1.291
			c-0.293,0.513-0.512,1.118-0.655,1.807c-0.145,0.69-0.215,1.416-0.215,2.176c0,0.844,0.076,1.604,0.228,2.285
			c0.152,0.679,0.392,1.281,0.721,1.807c0.316,0.515,0.714,0.918,1.195,1.207c0.48,0.291,1.054,0.435,1.722,0.435
			c0.628,0,1.193-0.146,1.698-0.441C-394.426-1804.972-394.014-1805.383-393.698-1805.909"/>
	</defs>
	<clipPath id="SVGID_58_">
		<use xlink:href="#SVGID_57_"  overflow="visible"/>
	</clipPath>
	<g clip-path="url(#SVGID_58_)">
		<defs>
			<rect id="SVGID_59_" x="-565" y="-1857.61" width="1440" height="3809"/>
		</defs>
		<clipPath id="SVGID_60_">
			<use xlink:href="#SVGID_59_"  overflow="visible"/>
		</clipPath>
		<rect x="-407.621" y="-1821.515" clip-path="url(#SVGID_60_)" fill="#FEFEFE" width="21.99" height="23.055"/>
	</g>
</g>
<g>
	<defs>
		<path id="SVGID_61_" d="M-379.8-1803.915l-3.032,0.192l-0.133-0.122v-0.808l-0.069-0.019c-0.305,0.34-0.681,0.62-1.129,0.834
			c-0.447,0.217-0.91,0.325-1.384,0.325c-0.491,0-0.967-0.11-1.426-0.329c-0.461-0.219-0.86-0.526-1.199-0.926
			c-0.344-0.405-0.619-0.889-0.82-1.458c-0.202-0.568-0.303-1.193-0.303-1.878c0-0.627,0.108-1.222,0.324-1.783
			c0.217-0.563,0.516-1.053,0.896-1.475c0.356-0.391,0.794-0.705,1.311-0.939c0.52-0.234,1.047-0.352,1.585-0.352
			c0.403,0,0.801,0.049,1.19,0.152c0.388,0.104,0.725,0.234,1.005,0.391v-3.018c0-0.245-0.04-0.469-0.122-0.671
			c-0.084-0.203-0.198-0.357-0.344-0.462c-0.164-0.112-0.384-0.192-0.662-0.241c-0.28-0.051-0.579-0.087-0.902-0.112v-0.544
			l3.551-0.194l0.133,0.133v11.666c0,0.207,0.038,0.382,0.118,0.525c0.08,0.143,0.194,0.264,0.346,0.363
			c0.112,0.07,0.272,0.114,0.483,0.133c0.211,0.015,0.405,0.028,0.581,0.034V-1803.915z M-382.982-1805.434v-5.067
			c-0.046-0.152-0.122-0.316-0.228-0.49c-0.105-0.177-0.236-0.338-0.394-0.485c-0.171-0.144-0.369-0.266-0.598-0.363
			s-0.493-0.144-0.797-0.144c-0.352,0-0.676,0.091-0.971,0.272c-0.295,0.181-0.556,0.443-0.784,0.781
			c-0.217,0.327-0.388,0.745-0.514,1.252c-0.126,0.504-0.188,1.064-0.188,1.678c0,0.492,0.046,0.941,0.141,1.34
			c0.093,0.401,0.251,0.775,0.474,1.12c0.204,0.327,0.466,0.591,0.784,0.791c0.32,0.199,0.698,0.298,1.136,0.298
			c0.468,0,0.856-0.103,1.163-0.308C-383.452-1804.965-383.191-1805.189-382.982-1805.434z"/>
	</defs>
	<clipPath id="SVGID_62_">
		<use xlink:href="#SVGID_61_"  overflow="visible"/>
	</clipPath>
	<g clip-path="url(#SVGID_62_)">
		<defs>
			<rect id="SVGID_63_" x="-565" y="-1857.61" width="1440" height="3809"/>
		</defs>
		<clipPath id="SVGID_64_">
			<use xlink:href="#SVGID_63_"  overflow="visible"/>
		</clipPath>
		<rect x="-394.293" y="-1822.349" clip-path="url(#SVGID_64_)" fill="#FEFEFE" width="19.493" height="23.836"/>
	</g>
</g>
<g>
	<defs>
		<path id="SVGID_65_" d="M-370.499-1808.174c0,0.61-0.097,1.207-0.289,1.796c-0.194,0.587-0.47,1.087-0.828,1.498
			c-0.405,0.468-0.874,0.813-1.408,1.042c-0.533,0.23-1.132,0.344-1.795,0.344c-0.552,0-1.077-0.104-1.576-0.312
			c-0.499-0.207-0.942-0.509-1.328-0.908c-0.383-0.393-0.685-0.87-0.91-1.435c-0.226-0.564-0.341-1.199-0.341-1.901
			c0-1.351,0.396-2.458,1.184-3.318c0.79-0.861,1.823-1.291,3.102-1.291c1.216,0,2.217,0.409,3.005,1.224
			C-370.893-1810.618-370.499-1809.533-370.499-1808.174 M-372.319-1808.157c0-0.437-0.044-0.903-0.131-1.389
			c-0.089-0.49-0.221-0.905-0.396-1.245c-0.188-0.361-0.436-0.652-0.74-0.872c-0.306-0.22-0.678-0.331-1.119-0.331
			c-0.453,0-0.837,0.112-1.157,0.334c-0.322,0.222-0.58,0.528-0.78,0.914c-0.188,0.355-0.32,0.764-0.396,1.218
			c-0.078,0.458-0.116,0.901-0.116,1.329c0,0.559,0.046,1.079,0.137,1.557c0.091,0.477,0.238,0.903,0.436,1.277
			c0.2,0.374,0.451,0.669,0.754,0.884c0.303,0.213,0.678,0.319,1.123,0.319c0.735,0,1.315-0.354,1.743-1.062
			C-372.532-1805.931-372.319-1806.91-372.319-1808.157"/>
	</defs>
	<clipPath id="SVGID_66_">
		<use xlink:href="#SVGID_65_"  overflow="visible"/>
	</clipPath>
	<g clip-path="url(#SVGID_66_)">
		<defs>
			<rect id="SVGID_67_" x="-565" y="-1857.61" width="1440" height="3809"/>
		</defs>
		<clipPath id="SVGID_68_">
			<use xlink:href="#SVGID_67_"  overflow="visible"/>
		</clipPath>
		<rect x="-383.974" y="-1817.659" clip-path="url(#SVGID_68_)" fill="#FEFEFE" width="18.475" height="19.165"/>
	</g>
</g>
<g>
	<defs>
		<path id="SVGID_69_" d="M-359.677-1803.758h-4.238v-0.58c0.135-0.011,0.284-0.023,0.445-0.034c0.16-0.011,0.295-0.036,0.4-0.07
			c0.164-0.053,0.285-0.146,0.365-0.277c0.078-0.131,0.118-0.302,0.118-0.513v-4.451c0-0.614-0.145-1.087-0.436-1.422
			c-0.291-0.335-0.645-0.502-1.062-0.502c-0.31,0-0.596,0.049-0.854,0.146c-0.259,0.097-0.487,0.215-0.687,0.355
			c-0.194,0.135-0.348,0.279-0.464,0.433c-0.114,0.156-0.198,0.281-0.249,0.374v4.978c0,0.198,0.04,0.363,0.122,0.492
			c0.082,0.127,0.206,0.228,0.369,0.298c0.124,0.057,0.257,0.101,0.4,0.131c0.145,0.031,0.293,0.049,0.445,0.061v0.58h-4.246v-0.58
			c0.135-0.011,0.274-0.023,0.417-0.034c0.145-0.011,0.268-0.036,0.373-0.07c0.166-0.053,0.287-0.146,0.365-0.277
			c0.08-0.131,0.12-0.302,0.12-0.511v-5.341c0-0.198-0.044-0.382-0.128-0.547c-0.086-0.167-0.206-0.302-0.358-0.409
			c-0.11-0.07-0.242-0.12-0.394-0.154c-0.152-0.032-0.318-0.053-0.493-0.065v-0.58l2.883-0.192l0.124,0.122v1.22h0.044
			c0.141-0.141,0.316-0.308,0.527-0.506c0.211-0.194,0.411-0.354,0.598-0.479c0.217-0.139,0.474-0.257,0.775-0.35
			c0.299-0.093,0.636-0.141,1.011-0.141c0.832,0,1.448,0.258,1.85,0.775c0.402,0.519,0.601,1.209,0.601,2.068v4.506
			c0,0.203,0.036,0.369,0.107,0.494c0.07,0.127,0.19,0.222,0.36,0.295c0.141,0.059,0.263,0.099,0.365,0.122
			c0.103,0.025,0.244,0.042,0.426,0.053V-1803.758z"/>
	</defs>
	<clipPath id="SVGID_70_">
		<use xlink:href="#SVGID_69_"  overflow="visible"/>
	</clipPath>
	<g clip-path="url(#SVGID_70_)">
		<defs>
			<rect id="SVGID_71_" x="-565" y="-1857.61" width="1440" height="3809"/>
		</defs>
		<clipPath id="SVGID_72_">
			<use xlink:href="#SVGID_71_"  overflow="visible"/>
		</clipPath>
		<rect x="-374.347" y="-1817.651" clip-path="url(#SVGID_72_)" fill="#FEFEFE" width="19.67" height="18.893"/>
	</g>
</g>
<g>
	<defs>
		<path id="SVGID_73_" d="M-353.26-1804.135c-0.381,0.158-0.742,0.291-1.081,0.399c-0.341,0.108-0.756,0.161-1.249,0.161
			c-0.727,0-1.239-0.182-1.534-0.547c-0.297-0.367-0.443-0.884-0.443-1.551v-5.865h-1.564v-0.842h1.599v-2.695h1.601v2.695h2.487
			v0.842h-2.47v4.837c0,0.365,0.013,0.667,0.04,0.91c0.027,0.243,0.089,0.454,0.188,0.637c0.093,0.169,0.234,0.298,0.423,0.386
			c0.186,0.087,0.44,0.131,0.756,0.131c0.147,0,0.362-0.013,0.647-0.038c0.284-0.027,0.483-0.061,0.601-0.103V-1804.135z"/>
	</defs>
	<clipPath id="SVGID_74_">
		<use xlink:href="#SVGID_73_"  overflow="visible"/>
	</clipPath>
	<g clip-path="url(#SVGID_74_)">
		<defs>
			<rect id="SVGID_75_" x="-565" y="-1857.61" width="1440" height="3809"/>
		</defs>
		<clipPath id="SVGID_76_">
			<use xlink:href="#SVGID_75_"  overflow="visible"/>
		</clipPath>
		<rect x="-364.131" y="-1820.075" clip-path="url(#SVGID_76_)" fill="#FEFEFE" width="15.871" height="21.501"/>
	</g>
</g>
<g>
	<defs>
		<path id="SVGID_77_" d="M-343.941-1808.174c0,0.61-0.097,1.207-0.289,1.796c-0.194,0.587-0.47,1.087-0.828,1.498
			c-0.405,0.468-0.874,0.813-1.408,1.042c-0.533,0.23-1.132,0.344-1.795,0.344c-0.552,0-1.077-0.104-1.576-0.312
			c-0.499-0.207-0.942-0.509-1.328-0.908c-0.383-0.393-0.685-0.87-0.91-1.435c-0.227-0.564-0.341-1.199-0.341-1.901
			c0-1.351,0.396-2.458,1.184-3.318c0.79-0.861,1.823-1.291,3.102-1.291c1.216,0,2.217,0.409,3.005,1.224
			C-344.336-1810.618-343.941-1809.533-343.941-1808.174 M-345.761-1808.157c0-0.437-0.044-0.903-0.131-1.389
			c-0.09-0.49-0.221-0.905-0.396-1.245c-0.188-0.361-0.436-0.652-0.74-0.872c-0.306-0.22-0.678-0.331-1.119-0.331
			c-0.453,0-0.838,0.112-1.157,0.334c-0.322,0.222-0.581,0.528-0.78,0.914c-0.188,0.355-0.32,0.764-0.396,1.218
			c-0.078,0.458-0.116,0.901-0.116,1.329c0,0.559,0.046,1.079,0.137,1.557c0.091,0.477,0.238,0.903,0.436,1.277
			c0.2,0.374,0.451,0.669,0.754,0.884c0.303,0.213,0.677,0.319,1.123,0.319c0.735,0,1.315-0.354,1.743-1.062
			C-345.974-1805.931-345.761-1806.91-345.761-1808.157"/>
	</defs>
	<clipPath id="SVGID_78_">
		<use xlink:href="#SVGID_77_"  overflow="visible"/>
	</clipPath>
	<g clip-path="url(#SVGID_78_)">
		<defs>
			<rect id="SVGID_79_" x="-565" y="-1857.61" width="1440" height="3809"/>
		</defs>
		<clipPath id="SVGID_80_">
			<use xlink:href="#SVGID_79_"  overflow="visible"/>
		</clipPath>
		<rect x="-357.417" y="-1817.659" clip-path="url(#SVGID_80_)" fill="#FEFEFE" width="18.475" height="19.165"/>
	</g>
</g>
<g>
	<defs>
		<path id="SVGID_81_" d="M-338.63-1803.758h-4.229v-0.58c0.135-0.011,0.278-0.025,0.43-0.038c0.152-0.015,0.278-0.038,0.379-0.067
			c0.164-0.053,0.287-0.146,0.369-0.277c0.082-0.131,0.122-0.302,0.122-0.513v-10.033c0-0.211-0.044-0.409-0.135-0.593
			c-0.091-0.184-0.209-0.329-0.356-0.435c-0.107-0.07-0.299-0.135-0.58-0.192c-0.282-0.061-0.506-0.095-0.678-0.106v-0.563
			l3.262-0.192l0.124,0.131v11.879c0,0.203,0.038,0.373,0.114,0.506c0.076,0.131,0.198,0.232,0.369,0.302
			c0.129,0.057,0.255,0.101,0.383,0.131c0.126,0.031,0.268,0.049,0.426,0.061V-1803.758z"/>
	</defs>
	<clipPath id="SVGID_82_">
		<use xlink:href="#SVGID_81_"  overflow="visible"/>
	</clipPath>
	<g clip-path="url(#SVGID_82_)">
		<defs>
			<rect id="SVGID_83_" x="-565" y="-1857.61" width="1440" height="3809"/>
		</defs>
		<clipPath id="SVGID_84_">
			<use xlink:href="#SVGID_83_"  overflow="visible"/>
		</clipPath>
		<rect x="-348.308" y="-1822.347" clip-path="url(#SVGID_84_)" fill="#FEFEFE" width="14.678" height="23.589"/>
	</g>
</g>
<g>
	<defs>
		<path id="SVGID_85_" d="M-329.085-1808.173c0,0.608-0.095,1.207-0.289,1.794c-0.194,0.589-0.47,1.087-0.828,1.498
			c-0.404,0.468-0.874,0.815-1.406,1.043c-0.535,0.228-1.134,0.344-1.797,0.344c-0.552,0-1.077-0.105-1.574-0.312
			c-0.501-0.209-0.942-0.511-1.33-0.91c-0.381-0.391-0.683-0.87-0.91-1.435s-0.339-1.199-0.339-1.901
			c0-1.351,0.394-2.457,1.184-3.318c0.788-0.859,1.823-1.289,3.102-1.289c1.214,0,2.215,0.407,3.005,1.224
			C-329.479-1810.618-329.085-1809.532-329.085-1808.173 M-330.905-1808.156c0-0.439-0.044-0.903-0.131-1.391
			c-0.088-0.49-0.221-0.903-0.396-1.243c-0.188-0.361-0.436-0.654-0.74-0.872c-0.305-0.22-0.678-0.331-1.119-0.331
			c-0.451,0-0.838,0.112-1.157,0.334s-0.581,0.526-0.78,0.912c-0.187,0.357-0.32,0.766-0.396,1.22
			c-0.076,0.456-0.114,0.901-0.114,1.327c0,0.561,0.046,1.081,0.137,1.558c0.089,0.477,0.236,0.903,0.436,1.275
			c0.2,0.376,0.449,0.671,0.754,0.884c0.301,0.215,0.676,0.319,1.121,0.319c0.735,0,1.315-0.352,1.743-1.061
			C-331.118-1805.931-330.905-1806.909-330.905-1808.156 M-331.634-1816.576c0,0.222-0.051,0.405-0.154,0.545
			c-0.103,0.139-0.253,0.289-0.453,0.447c-0.293,0.236-0.676,0.534-1.146,0.895c-0.472,0.365-0.982,0.76-1.526,1.186l-0.333-0.281
			c0.527-0.777,0.895-1.327,1.102-1.644c0.209-0.319,0.432-0.673,0.674-1.059c0.181-0.298,0.358-0.504,0.527-0.61
			c0.169-0.108,0.366-0.163,0.588-0.163c0.211,0,0.385,0.072,0.52,0.215C-331.7-1816.901-331.634-1816.745-331.634-1816.576"/>
	</defs>
	<clipPath id="SVGID_86_">
		<use xlink:href="#SVGID_85_"  overflow="visible"/>
	</clipPath>
	<g clip-path="url(#SVGID_86_)">
		<defs>
			<rect id="SVGID_87_" x="-565" y="-1857.61" width="1440" height="3809"/>
		</defs>
		<clipPath id="SVGID_88_">
			<use xlink:href="#SVGID_87_"  overflow="visible"/>
		</clipPath>
		<rect x="-342.559" y="-1822.26" clip-path="url(#SVGID_88_)" fill="#FEFEFE" width="18.473" height="23.766"/>
	</g>
</g>
<g>
	<defs>
		<path id="SVGID_89_" d="M-320.406-1804.653c0.234,0.22,0.417,0.473,0.554,0.755c0.133,0.281,0.202,0.629,0.202,1.043
			c0,0.416-0.091,0.808-0.274,1.175c-0.181,0.365-0.457,0.682-0.826,0.952c-0.392,0.274-0.86,0.487-1.406,0.641
			c-0.544,0.152-1.218,0.228-2.021,0.228c-1.313,0-2.295-0.192-2.946-0.576c-0.651-0.382-0.974-0.943-0.974-1.682
			c0-0.595,0.234-1.066,0.702-1.412c0.47-0.346,1.068-0.532,1.795-0.562v-0.122c-0.177-0.053-0.358-0.12-0.546-0.198
			c-0.188-0.08-0.348-0.173-0.483-0.276c-0.152-0.125-0.274-0.27-0.369-0.435c-0.093-0.167-0.141-0.374-0.141-0.62
			c0-0.31,0.11-0.597,0.329-0.855c0.221-0.26,0.554-0.485,0.999-0.673v-0.131c-0.563-0.264-0.999-0.603-1.311-1.013
			c-0.31-0.414-0.464-0.891-0.464-1.437c0-0.819,0.304-1.492,0.919-2.018c0.611-0.526,1.395-0.791,2.35-0.791
			c0.265,0,0.525,0.027,0.786,0.078c0.261,0.055,0.527,0.122,0.796,0.203h3.024v0.842h-2.038v0.053
			c0.217,0.251,0.377,0.53,0.483,0.834c0.105,0.304,0.158,0.603,0.158,0.895c0,0.76-0.31,1.405-0.927,1.931
			c-0.621,0.528-1.338,0.791-2.16,0.791h-1.062c-0.135,0.048-0.276,0.133-0.422,0.255c-0.147,0.122-0.221,0.289-0.221,0.502
			c0,0.215,0.063,0.38,0.187,0.494c0.122,0.114,0.272,0.192,0.447,0.232c0.169,0.047,0.367,0.078,0.594,0.087
			c0.227,0.013,0.459,0.021,0.698,0.028c0.257,0.006,0.611,0.023,1.06,0.051c0.447,0.03,0.765,0.047,0.953,0.053
			c0.268,0.013,0.541,0.076,0.813,0.192C-320.878-1805.018-320.63-1804.858-320.406-1804.653 M-321.093-1802.53
			c0-0.327-0.076-0.595-0.228-0.806c-0.152-0.211-0.384-0.355-0.695-0.431c-0.164-0.023-0.5-0.047-1.011-0.078
			c-0.51-0.03-1.102-0.044-1.776-0.044c-0.634,0.122-1.083,0.327-1.349,0.62c-0.266,0.289-0.4,0.661-0.4,1.12
			c0,0.203,0.044,0.399,0.131,0.585c0.087,0.188,0.24,0.361,0.457,0.521c0.206,0.15,0.482,0.276,0.826,0.372
			c0.346,0.097,0.769,0.145,1.266,0.145c0.862,0,1.54-0.167,2.036-0.498C-321.34-1801.355-321.093-1801.855-321.093-1802.53
			 M-322.781-1809.788c0-0.684-0.139-1.23-0.417-1.638c-0.278-0.407-0.67-0.61-1.174-0.61c-0.274,0-0.51,0.057-0.708,0.171
			c-0.196,0.114-0.356,0.278-0.478,0.487c-0.118,0.196-0.202,0.428-0.251,0.698c-0.049,0.274-0.074,0.553-0.074,0.84
			c0,0.648,0.141,1.18,0.426,1.589c0.284,0.409,0.651,0.614,1.102,0.614c0.504,0,0.893-0.203,1.167-0.608
			C-322.916-1808.654-322.781-1809.169-322.781-1809.788"/>
	</defs>
	<clipPath id="SVGID_90_">
		<use xlink:href="#SVGID_89_"  overflow="visible"/>
	</clipPath>
	<g clip-path="url(#SVGID_90_)">
		<defs>
			<rect id="SVGID_91_" x="-565" y="-1857.61" width="1440" height="3809"/>
		</defs>
		<clipPath id="SVGID_92_">
			<use xlink:href="#SVGID_91_"  overflow="visible"/>
		</clipPath>
		<rect x="-333.099" y="-1817.66" clip-path="url(#SVGID_92_)" fill="#FEFEFE" width="18.448" height="22.801"/>
	</g>
</g>
<g>
	<defs>
		<path id="SVGID_93_" d="M-314.464-1803.758h-4.185v-0.578c0.135-0.011,0.274-0.025,0.417-0.036
			c0.145-0.011,0.268-0.036,0.373-0.07c0.166-0.051,0.287-0.145,0.365-0.278c0.08-0.131,0.12-0.302,0.12-0.511v-5.341
			c0-0.186-0.044-0.357-0.128-0.513c-0.086-0.154-0.204-0.285-0.358-0.39c-0.11-0.068-0.272-0.131-0.482-0.181
			c-0.211-0.047-0.405-0.08-0.58-0.091v-0.58l3.059-0.192l0.124,0.122v7.059c0,0.205,0.038,0.373,0.118,0.509
			c0.078,0.135,0.202,0.234,0.371,0.298c0.128,0.051,0.253,0.095,0.375,0.125c0.122,0.034,0.259,0.057,0.411,0.068V-1803.758z
			 M-315.564-1815.934c0,0.333-0.11,0.623-0.329,0.872c-0.221,0.249-0.491,0.373-0.813,0.373c-0.299,0-0.56-0.118-0.778-0.354
			c-0.221-0.238-0.329-0.509-0.329-0.813c0-0.321,0.109-0.602,0.329-0.842c0.219-0.24,0.48-0.361,0.778-0.361
			c0.333,0,0.607,0.114,0.822,0.338C-315.671-1816.494-315.564-1816.232-315.564-1815.934z"/>
	</defs>
	<clipPath id="SVGID_94_">
		<use xlink:href="#SVGID_93_"  overflow="visible"/>
	</clipPath>
	<g clip-path="url(#SVGID_94_)">
		<defs>
			<rect id="SVGID_95_" x="-565" y="-1857.61" width="1440" height="3809"/>
		</defs>
		<clipPath id="SVGID_96_">
			<use xlink:href="#SVGID_95_"  overflow="visible"/>
		</clipPath>
		<rect x="-323.921" y="-1822.059" clip-path="url(#SVGID_96_)" fill="#FEFEFE" width="14.457" height="23.3"/>
	</g>
</g>
<g>
	<defs>
		<path id="SVGID_97_" d="M-309.383-1803.53c-1.254,0-2.236-0.416-2.944-1.247c-0.71-0.831-1.064-1.946-1.064-3.345
			c0-0.608,0.095-1.177,0.285-1.707c0.19-0.53,0.466-1.011,0.83-1.444c0.346-0.416,0.78-0.751,1.302-1.005
			c0.522-0.255,1.09-0.382,1.705-0.382c0.849,0,1.542,0.203,2.075,0.612c0.533,0.405,0.799,0.96,0.799,1.663
			c0,0.293-0.07,0.551-0.211,0.777c-0.139,0.224-0.371,0.336-0.693,0.336c-0.346,0-0.615-0.087-0.805-0.262
			c-0.19-0.175-0.285-0.371-0.285-0.587c0-0.26,0.036-0.532,0.105-0.81c0.07-0.276,0.112-0.479,0.124-0.606
			c-0.107-0.182-0.263-0.302-0.468-0.363c-0.209-0.063-0.432-0.093-0.672-0.093c-0.28,0-0.548,0.061-0.801,0.181
			c-0.255,0.12-0.502,0.34-0.742,0.661c-0.215,0.295-0.392,0.69-0.525,1.186c-0.135,0.498-0.202,1.091-0.202,1.783
			c0,1.089,0.242,1.977,0.723,2.665c0.483,0.686,1.117,1.03,1.901,1.03c0.567,0,1.043-0.137,1.426-0.414
			c0.384-0.276,0.738-0.692,1.068-1.245l0.559,0.369c-0.386,0.692-0.896,1.239-1.528,1.644
			C-308.057-1803.731-308.71-1803.53-309.383-1803.53"/>
	</defs>
	<clipPath id="SVGID_98_">
		<use xlink:href="#SVGID_97_"  overflow="visible"/>
	</clipPath>
	<g clip-path="url(#SVGID_98_)">
		<defs>
			<rect id="SVGID_99_" x="-565" y="-1857.61" width="1440" height="3809"/>
		</defs>
		<clipPath id="SVGID_100_">
			<use xlink:href="#SVGID_99_"  overflow="visible"/>
		</clipPath>
		<rect x="-318.392" y="-1817.66" clip-path="url(#SVGID_100_)" fill="#FEFEFE" width="17.497" height="19.131"/>
	</g>
</g>
<g>
	<defs>
		<path id="SVGID_101_" d="M-296.758-1808.174c0,0.61-0.097,1.207-0.293,1.796c-0.194,0.587-0.468,1.087-0.826,1.498
			c-0.405,0.468-0.874,0.813-1.408,1.042c-0.531,0.23-1.132,0.344-1.795,0.344c-0.552,0-1.077-0.104-1.576-0.312
			c-0.499-0.207-0.942-0.509-1.328-0.908c-0.383-0.393-0.685-0.87-0.91-1.435c-0.227-0.564-0.341-1.199-0.341-1.901
			c0-1.351,0.396-2.458,1.184-3.318c0.79-0.861,1.823-1.291,3.104-1.291c1.212,0,2.215,0.409,3.003,1.224
			C-297.156-1810.618-296.758-1809.533-296.758-1808.174 M-298.579-1808.157c0-0.437-0.044-0.903-0.129-1.389
			c-0.09-0.49-0.225-0.905-0.398-1.245c-0.19-0.361-0.436-0.652-0.74-0.872c-0.304-0.22-0.678-0.331-1.119-0.331
			c-0.453,0-0.837,0.112-1.157,0.334c-0.322,0.222-0.581,0.528-0.78,0.914c-0.188,0.355-0.32,0.764-0.396,1.218
			c-0.078,0.458-0.116,0.901-0.116,1.329c0,0.559,0.046,1.079,0.137,1.557c0.091,0.477,0.238,0.903,0.436,1.277
			c0.2,0.374,0.451,0.669,0.754,0.884c0.303,0.213,0.677,0.319,1.123,0.319c0.735,0,1.317-0.354,1.743-1.062
			C-298.794-1805.931-298.579-1806.91-298.579-1808.157"/>
	</defs>
	<clipPath id="SVGID_102_">
		<use xlink:href="#SVGID_101_"  overflow="visible"/>
	</clipPath>
	<g clip-path="url(#SVGID_102_)">
		<defs>
			<rect id="SVGID_103_" x="-565" y="-1857.61" width="1440" height="3809"/>
		</defs>
		<clipPath id="SVGID_104_">
			<use xlink:href="#SVGID_103_"  overflow="visible"/>
		</clipPath>
		<rect x="-310.235" y="-1817.659" clip-path="url(#SVGID_104_)" fill="#FEFEFE" width="18.477" height="19.165"/>
	</g>
</g>
<g>
	<defs>
		<rect id="SVGID_105_" x="-295.503" y="-1812.669" width="6.462" height="9.14"/>
	</defs>
	<clipPath id="SVGID_106_">
		<use xlink:href="#SVGID_105_"  overflow="visible"/>
	</clipPath>
	<g clip-path="url(#SVGID_106_)">
		<defs>
			<rect id="SVGID_107_" x="-565" y="-1857.61" width="1440" height="3809"/>
		</defs>
		<clipPath id="SVGID_108_">
			<use xlink:href="#SVGID_107_"  overflow="visible"/>
		</clipPath>
		<g clip-path="url(#SVGID_108_)" enable-background="new    ">
			<g>
				<defs>
					<rect id="SVGID_109_" x="-296" y="-1813.61" width="7" height="11"/>
				</defs>
				<clipPath id="SVGID_110_">
					<use xlink:href="#SVGID_109_"  overflow="visible"/>
				</clipPath>
				<g clip-path="url(#SVGID_110_)">
					<defs>
						<path id="SVGID_111_" d="M-289.788-1807.999c0.24,0.211,0.424,0.454,0.554,0.73c0.128,0.274,0.194,0.612,0.194,1.009
							c0,0.802-0.303,1.458-0.902,1.965c-0.6,0.511-1.38,0.766-2.335,0.766c-0.503,0-0.967-0.091-1.393-0.274
							c-0.424-0.181-0.727-0.348-0.91-0.5l-0.175,0.57h-0.659l-0.089-3.011h0.607c0.048,0.228,0.147,0.496,0.299,0.802
							c0.152,0.304,0.337,0.582,0.554,0.829c0.228,0.257,0.502,0.475,0.822,0.65c0.32,0.177,0.679,0.266,1.077,0.266
							c0.563,0,0.995-0.127,1.3-0.384c0.304-0.257,0.459-0.623,0.459-1.1c0-0.245-0.049-0.458-0.147-0.637
							c-0.095-0.179-0.238-0.335-0.424-0.469c-0.194-0.135-0.432-0.257-0.712-0.365c-0.284-0.106-0.598-0.215-0.942-0.321
							c-0.276-0.082-0.582-0.194-0.919-0.336c-0.337-0.144-0.624-0.312-0.866-0.505c-0.259-0.203-0.468-0.456-0.632-0.755
							c-0.166-0.298-0.247-0.65-0.247-1.053c0-0.709,0.265-1.309,0.792-1.8c0.529-0.492,1.235-0.738,2.118-0.738
							c0.341,0,0.689,0.044,1.041,0.131c0.356,0.087,0.643,0.194,0.866,0.315l0.204-0.456h0.634l0.131,2.784h-0.607
							c-0.124-0.623-0.388-1.131-0.796-1.522c-0.407-0.39-0.904-0.587-1.49-0.587c-0.48,0-0.858,0.122-1.134,0.365
							c-0.276,0.241-0.413,0.532-0.413,0.874c0,0.262,0.046,0.483,0.137,0.658c0.089,0.177,0.227,0.325,0.407,0.449
							c0.177,0.116,0.398,0.226,0.664,0.331c0.268,0.101,0.596,0.217,0.99,0.344c0.388,0.125,0.752,0.268,1.094,0.432
							C-290.294-1808.377-290.011-1808.197-289.788-1807.999"/>
					</defs>
					<clipPath id="SVGID_112_">
						<use xlink:href="#SVGID_111_"  overflow="visible"/>
					</clipPath>
					<g clip-path="url(#SVGID_112_)">
						<defs>
							<rect id="SVGID_113_" x="-296" y="-1813.61" width="7" height="11"/>
						</defs>
						<clipPath id="SVGID_114_">
							<use xlink:href="#SVGID_113_"  overflow="visible"/>
						</clipPath>
						<rect x="-300.503" y="-1817.669" clip-path="url(#SVGID_114_)" fill="#FEFEFE" width="16.463" height="19.14"/>
					</g>
				</g>
			</g>
		</g>
	</g>
</g>
<g>
	<path fill="#FFFFFF" d="M24.054,40.759h-9.641v-1.338c0.309-0.026,0.629-0.053,0.96-0.082c0.332-0.024,0.619-0.08,0.861-0.159
		c0.378-0.121,0.658-0.337,0.841-0.639c0.181-0.302,0.273-0.699,0.273-1.184V25.035c0-0.432-0.099-0.825-0.292-1.184
		c-0.198-0.359-0.472-0.658-0.822-0.902c-0.256-0.159-0.627-0.297-1.114-0.414c-0.485-0.114-0.931-0.183-1.336-0.212v-1.336
		l7.051-0.448l0.284,0.284v16.292c0,0.472,0.089,0.861,0.27,1.174c0.183,0.311,0.467,0.538,0.856,0.687
		c0.296,0.123,0.583,0.22,0.866,0.294c0.28,0.075,0.595,0.126,0.943,0.152V40.759z M21.521,12.659c0,0.767-0.253,1.442-0.759,2.015
		c-0.506,0.574-1.13,0.863-1.875,0.863c-0.687,0-1.285-0.277-1.793-0.82c-0.508-0.549-0.76-1.174-0.76-1.878
		c0-0.74,0.253-1.389,0.76-1.943c0.508-0.552,1.106-0.83,1.793-0.83c0.771,0,1.401,0.26,1.895,0.779
		C21.275,11.366,21.521,11.971,21.521,12.659"/>
	<path fill="#FFFFFF" d="M46.017,30.569c0,1.403-0.224,2.782-0.668,4.142c-0.448,1.357-1.082,2.51-1.907,3.454
		c-0.935,1.082-2.015,1.885-3.245,2.411c-1.232,0.528-2.609,0.789-4.139,0.789c-1.27,0-2.481-0.239-3.63-0.718
		c-1.148-0.48-2.17-1.179-3.064-2.097c-0.878-0.906-1.579-2.008-2.098-3.313c-0.519-1.304-0.783-2.765-0.783-4.385
		c0-3.122,0.913-5.675,2.731-7.661c1.818-1.984,4.202-2.978,7.15-2.978c2.796,0,5.106,0.945,6.924,2.826
		C45.108,24.927,46.017,27.435,46.017,30.569 M41.824,30.61c0-1.013-0.104-2.086-0.306-3.213c-0.202-1.126-0.509-2.085-0.913-2.869
		c-0.434-0.836-1.001-1.505-1.705-2.015c-0.704-0.506-1.562-0.759-2.579-0.759c-1.041,0-1.931,0.256-2.667,0.771
		c-0.738,0.511-1.336,1.213-1.796,2.105c-0.434,0.825-0.738,1.764-0.914,2.816c-0.178,1.056-0.263,2.073-0.263,3.059
		c0,1.299,0.104,2.497,0.313,3.597c0.21,1.102,0.545,2.085,1.005,2.949c0.461,0.863,1.039,1.541,1.736,2.034
		c0.697,0.496,1.56,0.742,2.587,0.742c1.692,0,3.033-0.817,4.021-2.452C41.33,35.742,41.824,33.484,41.824,30.61"/>
	<path fill="#FFFFFF" d="M52.935,25.771c2.281,2.934,3.014,6.29,2.199,10.079c-0.817,3.785-3.173,7.628-7.073,11.526
		c-3.961,3.963-7.844,6.359-11.646,7.192c-3.8,0.829-7.177,0.114-10.128-2.15l1.189-1.189c2.169,1.497,4.732,1.722,7.693,0.673
		c2.96-1.049,6.35-3.486,10.173-7.304c3.638-3.64,5.998-6.938,7.083-9.896c1.083-2.956,0.863-5.542-0.665-7.758L52.935,25.771z"/>
	<path fill="#FFFFFF" d="M8.178,7.491c3.898-3.896,7.739-6.254,11.526-7.069c3.787-0.817,7.148-0.085,10.079,2.199l-1.176,1.176
		c-2.216-1.531-4.8-1.752-7.756-0.668c-2.955,1.083-6.254,3.445-9.892,7.083c-3.819,3.823-6.256,7.211-7.305,10.173
		c-1.053,2.96-0.827,5.525,0.672,7.691l-1.189,1.189c-2.263-2.949-2.977-6.326-2.148-10.13C1.818,15.336,4.217,11.454,8.178,7.491"
		/>
	<path fill="#FFFFFF" d="M68.108,23.636h-5.574v-0.619c0.157-0.012,0.384-0.029,0.682-0.053c0.297-0.022,0.506-0.058,0.627-0.104
		c0.191-0.075,0.332-0.179,0.419-0.311c0.087-0.13,0.13-0.311,0.13-0.543V13.04c0-0.203-0.031-0.374-0.094-0.511
		c-0.065-0.137-0.215-0.251-0.455-0.345c-0.174-0.07-0.395-0.135-0.658-0.195c-0.265-0.063-0.482-0.099-0.651-0.111v-0.619h5.574
		v0.619c-0.179,0.007-0.395,0.029-0.646,0.067c-0.249,0.038-0.467,0.085-0.654,0.144c-0.22,0.07-0.369,0.185-0.444,0.34
		c-0.075,0.157-0.113,0.332-0.113,0.523v8.958c0,0.193,0.043,0.362,0.126,0.511c0.084,0.149,0.227,0.265,0.431,0.354
		c0.123,0.044,0.323,0.097,0.598,0.152c0.277,0.055,0.511,0.085,0.702,0.092V23.636z"/>
	<path fill="#FFFFFF" d="M78.932,23.636h-4.204v-0.576c0.133-0.012,0.28-0.024,0.441-0.034c0.161-0.012,0.292-0.036,0.396-0.07
		c0.162-0.053,0.284-0.144,0.362-0.275c0.079-0.132,0.118-0.301,0.118-0.509v-4.422c0-0.612-0.144-1.082-0.432-1.413
		c-0.289-0.332-0.639-0.497-1.054-0.497c-0.308,0-0.591,0.048-0.848,0.144c-0.256,0.096-0.484,0.214-0.682,0.354
		c-0.191,0.133-0.345,0.279-0.46,0.431c-0.113,0.154-0.197,0.279-0.248,0.371v4.947c0,0.197,0.039,0.361,0.121,0.487
		c0.082,0.128,0.203,0.227,0.366,0.297c0.121,0.058,0.255,0.101,0.396,0.13c0.142,0.031,0.289,0.05,0.441,0.062v0.576h-4.212v-0.576
		c0.135-0.012,0.272-0.024,0.415-0.034c0.142-0.012,0.265-0.036,0.369-0.07c0.162-0.053,0.284-0.144,0.362-0.275
		c0.079-0.13,0.118-0.299,0.118-0.508v-5.308c0-0.197-0.043-0.379-0.126-0.543c-0.084-0.166-0.202-0.301-0.354-0.407
		c-0.109-0.07-0.241-0.12-0.391-0.15c-0.152-0.032-0.314-0.055-0.489-0.067v-0.574l2.861-0.193l0.123,0.123v1.212h0.043
		c0.138-0.14,0.314-0.306,0.523-0.501c0.21-0.197,0.407-0.354,0.595-0.477c0.215-0.14,0.47-0.255,0.767-0.349
		c0.296-0.094,0.631-0.14,1.003-0.14c0.825,0,1.437,0.258,1.835,0.772c0.398,0.514,0.598,1.2,0.598,2.054v4.475
		c0,0.203,0.034,0.367,0.104,0.492c0.07,0.125,0.188,0.224,0.357,0.294c0.14,0.056,0.26,0.097,0.362,0.121
		c0.103,0.022,0.243,0.039,0.422,0.051V23.636z"/>
	<path fill="#FFFFFF" d="M85.667,19.423c0.239,0.21,0.42,0.453,0.549,0.725c0.128,0.273,0.193,0.607,0.193,1.003
		c0,0.798-0.299,1.447-0.895,1.953c-0.595,0.506-1.369,0.76-2.314,0.76c-0.501,0-0.962-0.091-1.384-0.272
		c-0.422-0.179-0.723-0.345-0.902-0.497l-0.174,0.567h-0.655l-0.087-2.992h0.602c0.048,0.227,0.145,0.494,0.297,0.796
		c0.15,0.304,0.333,0.578,0.549,0.824c0.227,0.256,0.499,0.473,0.817,0.648c0.316,0.174,0.672,0.263,1.068,0.263
		c0.557,0,0.988-0.128,1.29-0.383c0.302-0.253,0.453-0.619,0.453-1.092c0-0.244-0.046-0.455-0.144-0.632
		c-0.094-0.178-0.236-0.333-0.422-0.467c-0.191-0.133-0.429-0.255-0.707-0.362c-0.279-0.108-0.59-0.214-0.933-0.318
		c-0.273-0.082-0.578-0.195-0.911-0.337c-0.335-0.142-0.62-0.309-0.86-0.502c-0.256-0.203-0.465-0.451-0.627-0.748
		c-0.164-0.297-0.246-0.646-0.246-1.046c0-0.704,0.263-1.3,0.786-1.789c0.523-0.489,1.224-0.733,2.102-0.733
		c0.337,0,0.682,0.043,1.034,0.13c0.35,0.089,0.637,0.193,0.858,0.316l0.202-0.455h0.629l0.13,2.765h-0.601
		c-0.121-0.619-0.384-1.123-0.789-1.511c-0.405-0.388-0.897-0.583-1.478-0.583c-0.477,0-0.853,0.12-1.124,0.361
		c-0.273,0.239-0.41,0.53-0.41,0.868c0,0.263,0.044,0.482,0.135,0.654c0.091,0.176,0.226,0.325,0.405,0.446
		c0.174,0.116,0.395,0.226,0.66,0.326c0.263,0.103,0.591,0.217,0.981,0.345c0.384,0.121,0.745,0.265,1.085,0.427
		C85.164,19.045,85.445,19.226,85.667,19.423"/>
	<path fill="#FFFFFF" d="M93.02,23.261c-0.379,0.157-0.737,0.291-1.073,0.396c-0.337,0.109-0.75,0.162-1.239,0.162
		c-0.721,0-1.229-0.181-1.521-0.545c-0.294-0.364-0.441-0.877-0.441-1.54v-5.827h-1.553v-0.837h1.588v-2.676h1.588v2.676h2.469
		v0.837h-2.452v4.807c0,0.361,0.014,0.66,0.039,0.902s0.089,0.453,0.188,0.632c0.094,0.169,0.232,0.297,0.419,0.384
		c0.185,0.087,0.436,0.13,0.748,0.13c0.147,0,0.361-0.014,0.643-0.038c0.282-0.027,0.482-0.062,0.598-0.101V23.261z"/>
	<path fill="#FFFFFF" d="M98.043,23.636H93.89V23.06c0.133-0.012,0.272-0.022,0.414-0.034c0.144-0.012,0.267-0.036,0.371-0.07
		c0.164-0.053,0.284-0.144,0.362-0.273c0.079-0.132,0.118-0.301,0.118-0.509v-5.308c0-0.185-0.041-0.355-0.126-0.509
		c-0.084-0.154-0.202-0.284-0.354-0.386c-0.109-0.07-0.27-0.13-0.478-0.179s-0.402-0.08-0.576-0.091v-0.576l3.035-0.193l0.121,0.123
		v7.011c0,0.203,0.039,0.373,0.118,0.506c0.079,0.135,0.2,0.234,0.369,0.297c0.126,0.051,0.249,0.096,0.371,0.126
		c0.123,0.032,0.258,0.053,0.408,0.065V23.636z M96.953,11.539c0,0.33-0.109,0.62-0.326,0.868c-0.219,0.246-0.489,0.371-0.808,0.371
		c-0.297,0-0.554-0.12-0.771-0.354c-0.219-0.236-0.328-0.504-0.328-0.807c0-0.321,0.109-0.6,0.328-0.837
		c0.217-0.239,0.473-0.357,0.771-0.357c0.332,0,0.603,0.111,0.815,0.335C96.847,10.982,96.953,11.242,96.953,11.539"/>
	<path fill="#FFFFFF" d="M104.419,23.261c-0.379,0.157-0.737,0.291-1.073,0.396c-0.337,0.109-0.75,0.162-1.239,0.162
		c-0.721,0-1.229-0.181-1.521-0.545c-0.294-0.364-0.441-0.877-0.441-1.54v-5.827h-1.553v-0.837h1.588v-2.676h1.588v2.676h2.469
		v0.837h-2.452v4.807c0,0.361,0.014,0.66,0.039,0.902c0.026,0.243,0.089,0.453,0.188,0.632c0.094,0.169,0.232,0.297,0.419,0.384
		c0.185,0.087,0.436,0.13,0.748,0.13c0.147,0,0.361-0.014,0.643-0.038c0.282-0.027,0.482-0.062,0.598-0.101V23.261z"/>
	<path fill="#FFFFFF" d="M114.493,23.48l-2.809,0.191l-0.132-0.121v-1.092h-0.051c-0.14,0.147-0.296,0.302-0.47,0.468
		c-0.174,0.164-0.374,0.314-0.602,0.448c-0.26,0.157-0.514,0.279-0.757,0.357c-0.244,0.082-0.59,0.125-1.037,0.125
		c-0.759,0-1.338-0.249-1.736-0.747c-0.398-0.496-0.596-1.218-0.596-2.163V16.83c0-0.208-0.039-0.383-0.118-0.525
		c-0.08-0.144-0.197-0.267-0.347-0.371c-0.106-0.07-0.238-0.121-0.396-0.154c-0.157-0.031-0.323-0.053-0.501-0.065V15.14
		l2.871-0.208l0.13,0.121v5.974c0,0.624,0.14,1.092,0.419,1.406c0.28,0.313,0.615,0.47,1.003,0.47c0.321,0,0.607-0.05,0.856-0.149
		c0.249-0.097,0.46-0.215,0.627-0.349c0.157-0.121,0.296-0.249,0.414-0.386c0.121-0.138,0.21-0.263,0.277-0.379v-4.87
		c0-0.191-0.043-0.362-0.123-0.511c-0.082-0.147-0.195-0.273-0.34-0.378c-0.106-0.068-0.26-0.113-0.467-0.126
		c-0.208-0.014-0.437-0.027-0.694-0.039V15.14l3.131-0.208l0.132,0.121v6.823c0,0.197,0.041,0.364,0.123,0.504
		c0.08,0.138,0.193,0.26,0.34,0.357c0.104,0.065,0.229,0.106,0.374,0.128c0.145,0.019,0.304,0.032,0.48,0.038V23.48z"/>
	<path fill="#FFFFFF" d="M120.86,23.261c-0.378,0.157-0.737,0.291-1.073,0.396c-0.337,0.109-0.748,0.162-1.239,0.162
		c-0.719,0-1.227-0.181-1.521-0.545c-0.294-0.364-0.441-0.877-0.441-1.54v-5.827h-1.552v-0.837h1.588v-2.676h1.586v2.676h2.469
		v0.837h-2.45v4.807c0,0.361,0.014,0.66,0.038,0.902c0.027,0.243,0.089,0.453,0.19,0.632c0.092,0.169,0.232,0.297,0.417,0.384
		c0.186,0.087,0.437,0.13,0.75,0.13c0.145,0,0.359-0.014,0.641-0.038c0.282-0.027,0.482-0.062,0.598-0.101V23.261z"/>
	<path fill="#FFFFFF" d="M130.107,19.249c0,0.605-0.097,1.2-0.289,1.784c-0.193,0.584-0.466,1.08-0.822,1.487
		c-0.402,0.467-0.868,0.812-1.396,1.039c-0.53,0.227-1.123,0.34-1.781,0.34c-0.547,0-1.068-0.104-1.564-0.311
		c-0.494-0.205-0.935-0.508-1.319-0.902c-0.378-0.39-0.678-0.865-0.902-1.425c-0.226-0.562-0.337-1.191-0.337-1.888
		c0-1.345,0.391-2.442,1.174-3.298c0.783-0.854,1.81-1.282,3.078-1.282c1.205,0,2.199,0.405,2.982,1.217
		C129.714,16.819,130.107,17.901,130.107,19.249 M128.301,19.266c0-0.436-0.043-0.895-0.132-1.382
		c-0.087-0.485-0.219-0.895-0.393-1.234c-0.186-0.361-0.432-0.649-0.733-0.868c-0.304-0.217-0.673-0.326-1.111-0.326
		c-0.448,0-0.832,0.111-1.15,0.332c-0.316,0.22-0.576,0.525-0.772,0.907c-0.186,0.354-0.318,0.757-0.393,1.212
		c-0.075,0.455-0.114,0.894-0.114,1.318c0,0.559,0.046,1.075,0.135,1.548c0.091,0.473,0.236,0.897,0.432,1.27
		c0.2,0.373,0.448,0.665,0.748,0.877c0.301,0.212,0.67,0.318,1.114,0.318c0.728,0,1.306-0.352,1.729-1.056
		C128.087,21.477,128.301,20.507,128.301,19.266"/>
	<path fill="#FFFFFF" d="M137.022,19.423c0.239,0.21,0.422,0.453,0.549,0.725c0.128,0.273,0.193,0.607,0.193,1.003
		c0,0.798-0.297,1.447-0.894,1.953c-0.596,0.506-1.369,0.76-2.315,0.76c-0.501,0-0.962-0.091-1.382-0.272
		c-0.422-0.179-0.723-0.345-0.902-0.497l-0.176,0.567h-0.654l-0.085-2.992h0.6c0.048,0.227,0.147,0.494,0.297,0.796
		c0.152,0.304,0.333,0.578,0.549,0.824c0.227,0.256,0.499,0.473,0.817,0.648c0.316,0.174,0.672,0.263,1.068,0.263
		c0.559,0,0.989-0.128,1.292-0.383c0.301-0.253,0.453-0.619,0.453-1.092c0-0.244-0.048-0.455-0.144-0.632
		c-0.096-0.178-0.238-0.333-0.424-0.467c-0.191-0.133-0.427-0.255-0.706-0.362c-0.28-0.108-0.59-0.214-0.935-0.318
		c-0.272-0.082-0.576-0.195-0.911-0.337c-0.333-0.142-0.62-0.309-0.86-0.502c-0.255-0.203-0.463-0.451-0.627-0.748
		c-0.164-0.297-0.244-0.646-0.244-1.046c0-0.704,0.261-1.3,0.784-1.789c0.525-0.489,1.225-0.733,2.104-0.733
		c0.337,0,0.68,0.043,1.032,0.13c0.352,0.089,0.637,0.193,0.86,0.316l0.2-0.455h0.629l0.132,2.765h-0.603
		c-0.121-0.619-0.384-1.123-0.789-1.511c-0.403-0.388-0.895-0.583-1.478-0.583c-0.475,0-0.851,0.12-1.124,0.361
		c-0.273,0.239-0.41,0.53-0.41,0.868c0,0.263,0.044,0.482,0.135,0.654c0.091,0.176,0.226,0.325,0.405,0.446
		c0.176,0.116,0.395,0.226,0.66,0.326c0.265,0.103,0.593,0.217,0.981,0.345c0.384,0.121,0.747,0.265,1.087,0.427
		C136.521,19.045,136.801,19.226,137.022,19.423"/>
	<path fill="#FFFFFF" d="M72.696,30.768c0.547,0.571,0.974,1.259,1.283,2.063c0.306,0.807,0.461,1.697,0.461,2.674
		c0,0.983-0.157,1.875-0.472,2.678c-0.314,0.803-0.75,1.485-1.309,2.049c-0.54,0.559-1.167,0.989-1.883,1.292
		c-0.714,0.302-1.478,0.455-2.285,0.455c-0.861,0-1.656-0.162-2.386-0.484c-0.73-0.325-1.357-0.774-1.88-1.348
		c-0.523-0.566-0.935-1.249-1.234-2.056c-0.301-0.803-0.451-1.666-0.451-2.585c0-1.005,0.157-1.904,0.473-2.691
		c0.313-0.786,0.745-1.47,1.297-2.045c0.549-0.569,1.184-1.005,1.907-1.307c0.725-0.302,1.482-0.453,2.273-0.453
		c0.819,0,1.593,0.154,2.319,0.461C71.539,29.777,72.166,30.211,72.696,30.768 M71.397,39.543c0.325-0.53,0.562-1.128,0.709-1.796
		c0.149-0.668,0.224-1.417,0.224-2.242c0-0.848-0.084-1.627-0.249-2.336c-0.164-0.711-0.408-1.316-0.728-1.815
		c-0.32-0.496-0.721-0.88-1.203-1.157c-0.484-0.275-1.036-0.414-1.658-0.414c-0.697,0-1.292,0.161-1.779,0.478
		c-0.489,0.321-0.889,0.748-1.194,1.283c-0.292,0.511-0.508,1.111-0.651,1.796c-0.142,0.685-0.214,1.408-0.214,2.163
		c0,0.837,0.077,1.593,0.227,2.268c0.15,0.675,0.39,1.275,0.714,1.798c0.314,0.511,0.711,0.911,1.188,1.2
		c0.475,0.287,1.046,0.432,1.709,0.432c0.622,0,1.183-0.147,1.683-0.437C70.674,40.475,71.081,40.068,71.397,39.543"/>
	<path fill="#FFFFFF" d="M85.187,41.524l-3.009,0.191l-0.132-0.121v-0.803l-0.068-0.019c-0.302,0.34-0.677,0.615-1.121,0.83
		c-0.443,0.215-0.901,0.321-1.37,0.321c-0.489,0-0.96-0.108-1.415-0.326c-0.458-0.217-0.853-0.525-1.191-0.919
		c-0.342-0.403-0.613-0.885-0.813-1.449c-0.2-0.564-0.301-1.186-0.301-1.866c0-0.622,0.106-1.213,0.321-1.77
		c0.215-0.559,0.511-1.046,0.89-1.464c0.354-0.391,0.788-0.701,1.302-0.935c0.513-0.232,1.037-0.349,1.572-0.349
		c0.4,0,0.793,0.051,1.179,0.154c0.388,0.101,0.719,0.229,0.998,0.386v-2.997c0-0.243-0.041-0.467-0.121-0.666
		c-0.082-0.203-0.196-0.355-0.342-0.46c-0.162-0.111-0.381-0.191-0.658-0.241c-0.275-0.05-0.574-0.085-0.895-0.109v-0.54
		l3.525-0.193l0.13,0.13v11.594c0,0.203,0.039,0.376,0.118,0.518c0.079,0.142,0.195,0.265,0.345,0.362
		c0.111,0.07,0.272,0.114,0.48,0.13c0.208,0.019,0.4,0.031,0.576,0.036V41.524z M82.029,40.015v-5.033
		c-0.046-0.152-0.121-0.314-0.227-0.489c-0.103-0.174-0.236-0.335-0.39-0.48c-0.169-0.145-0.367-0.267-0.593-0.362
		c-0.227-0.096-0.49-0.144-0.793-0.144c-0.349,0-0.668,0.091-0.96,0.272c-0.294,0.179-0.555,0.437-0.779,0.776
		c-0.215,0.325-0.386,0.738-0.509,1.242c-0.126,0.502-0.19,1.059-0.19,1.67c0,0.489,0.048,0.933,0.14,1.331
		c0.094,0.398,0.25,0.767,0.472,1.111c0.202,0.326,0.461,0.588,0.778,0.784c0.316,0.2,0.692,0.297,1.128,0.297
		c0.465,0,0.849-0.101,1.153-0.304C81.564,40.482,81.82,40.26,82.029,40.015"/>
	<path fill="#FFFFFF" d="M94.415,37.293c0,0.605-0.097,1.2-0.289,1.784c-0.193,0.584-0.466,1.08-0.822,1.487
		c-0.402,0.467-0.868,0.812-1.396,1.039c-0.53,0.227-1.123,0.34-1.781,0.34c-0.547,0-1.068-0.104-1.564-0.311
		c-0.494-0.205-0.935-0.508-1.319-0.902c-0.378-0.39-0.678-0.865-0.902-1.425c-0.226-0.562-0.337-1.191-0.337-1.888
		c0-1.345,0.391-2.442,1.174-3.298c0.783-0.854,1.81-1.282,3.078-1.282c1.205,0,2.199,0.405,2.982,1.217
		C94.022,34.863,94.415,35.945,94.415,37.293 M92.609,37.31c0-0.436-0.043-0.895-0.132-1.382c-0.087-0.485-0.219-0.895-0.393-1.234
		c-0.186-0.361-0.432-0.649-0.733-0.868c-0.304-0.217-0.673-0.326-1.111-0.326c-0.448,0-0.832,0.111-1.15,0.332
		c-0.316,0.22-0.576,0.525-0.772,0.907c-0.186,0.354-0.318,0.757-0.393,1.212c-0.075,0.455-0.114,0.894-0.114,1.318
		c0,0.559,0.046,1.075,0.135,1.548c0.091,0.473,0.236,0.897,0.432,1.27c0.2,0.373,0.448,0.665,0.748,0.877
		c0.301,0.212,0.67,0.318,1.114,0.318c0.728,0,1.306-0.352,1.729-1.056C92.395,39.522,92.609,38.551,92.609,37.31"/>
	<path fill="#FFFFFF" d="M105.152,41.681h-4.204v-0.576c0.133-0.012,0.28-0.024,0.441-0.034c0.159-0.012,0.292-0.036,0.395-0.07
		c0.164-0.053,0.284-0.144,0.362-0.275c0.079-0.132,0.12-0.301,0.12-0.509v-4.422c0-0.612-0.145-1.082-0.432-1.413
		c-0.289-0.332-0.641-0.497-1.056-0.497c-0.308,0-0.59,0.048-0.848,0.144c-0.256,0.096-0.484,0.214-0.682,0.354
		c-0.191,0.133-0.343,0.279-0.46,0.431c-0.113,0.154-0.197,0.279-0.248,0.371v4.947c0,0.197,0.039,0.361,0.121,0.487
		c0.082,0.128,0.203,0.227,0.367,0.297c0.121,0.058,0.253,0.101,0.396,0.13c0.142,0.031,0.289,0.05,0.441,0.062v0.576h-4.214v-0.576
		c0.135-0.012,0.273-0.024,0.415-0.034c0.144-0.012,0.267-0.036,0.369-0.07c0.164-0.053,0.284-0.144,0.362-0.275
		c0.079-0.13,0.12-0.299,0.12-0.508V34.91c0-0.197-0.043-0.379-0.128-0.543c-0.082-0.166-0.202-0.301-0.354-0.407
		c-0.109-0.07-0.239-0.12-0.391-0.15c-0.15-0.032-0.314-0.055-0.487-0.067v-0.574l2.861-0.193l0.121,0.123v1.212h0.043
		c0.14-0.14,0.314-0.306,0.525-0.501c0.208-0.197,0.407-0.354,0.593-0.477c0.215-0.14,0.472-0.255,0.767-0.349
		c0.297-0.094,0.631-0.14,1.003-0.14c0.825,0,1.439,0.258,1.837,0.772c0.396,0.514,0.598,1.2,0.598,2.054v4.475
		c0,0.203,0.032,0.367,0.103,0.492c0.07,0.125,0.188,0.224,0.359,0.294c0.138,0.056,0.258,0.097,0.361,0.121
		c0.103,0.022,0.244,0.039,0.424,0.051V41.681z"/>
	<path fill="#FFFFFF" d="M111.519,41.305c-0.379,0.157-0.737,0.291-1.073,0.396c-0.337,0.109-0.75,0.162-1.239,0.162
		c-0.721,0-1.229-0.181-1.521-0.545c-0.294-0.364-0.441-0.877-0.441-1.54v-5.827h-1.553v-0.837h1.588v-2.676h1.588v2.676h2.469
		v0.837h-2.452v4.807c0,0.361,0.014,0.66,0.039,0.902c0.026,0.243,0.089,0.453,0.188,0.632c0.094,0.169,0.232,0.297,0.419,0.384
		c0.185,0.087,0.436,0.13,0.748,0.13c0.147,0,0.361-0.014,0.643-0.038c0.282-0.027,0.482-0.062,0.598-0.101V41.305z"/>
	<path fill="#FFFFFF" d="M120.765,37.293c0,0.605-0.097,1.2-0.289,1.784c-0.193,0.584-0.467,1.08-0.822,1.487
		c-0.402,0.467-0.868,0.812-1.396,1.039c-0.53,0.227-1.123,0.34-1.781,0.34c-0.547,0-1.068-0.104-1.564-0.311
		c-0.494-0.205-0.935-0.508-1.319-0.902c-0.378-0.39-0.678-0.865-0.902-1.425c-0.226-0.562-0.337-1.191-0.337-1.888
		c0-1.345,0.391-2.442,1.174-3.298c0.783-0.854,1.81-1.282,3.078-1.282c1.205,0,2.199,0.405,2.982,1.217
		C120.372,34.863,120.765,35.945,120.765,37.293 M118.959,37.31c0-0.436-0.043-0.895-0.132-1.382
		c-0.087-0.485-0.219-0.895-0.393-1.234c-0.186-0.361-0.432-0.649-0.733-0.868c-0.304-0.217-0.673-0.326-1.111-0.326
		c-0.448,0-0.832,0.111-1.15,0.332c-0.316,0.22-0.576,0.525-0.772,0.907c-0.186,0.354-0.318,0.757-0.393,1.212
		c-0.075,0.455-0.114,0.894-0.114,1.318c0,0.559,0.046,1.075,0.135,1.548c0.091,0.473,0.236,0.897,0.432,1.27
		c0.2,0.373,0.448,0.665,0.748,0.877s0.67,0.318,1.114,0.318c0.728,0,1.306-0.352,1.729-1.056
		C118.745,39.522,118.959,38.551,118.959,37.31"/>
	<path fill="#FFFFFF" d="M126.033,41.681h-4.195v-0.576c0.133-0.012,0.275-0.026,0.427-0.038c0.15-0.015,0.275-0.038,0.376-0.067
		c0.161-0.053,0.284-0.144,0.366-0.275c0.08-0.132,0.121-0.301,0.121-0.509v-9.969c0-0.208-0.046-0.407-0.135-0.59
		c-0.091-0.185-0.207-0.328-0.352-0.432c-0.106-0.068-0.297-0.133-0.576-0.191c-0.28-0.06-0.504-0.092-0.673-0.104v-0.559
		l3.237-0.191l0.121,0.13V40.11c0,0.203,0.038,0.371,0.113,0.502c0.077,0.13,0.2,0.231,0.367,0.301
		c0.128,0.058,0.255,0.101,0.379,0.13c0.125,0.031,0.267,0.05,0.424,0.062V41.681z"/>
	<path fill="#FFFFFF" d="M135.504,37.294c0,0.603-0.096,1.2-0.287,1.784c-0.193,0.584-0.467,1.08-0.822,1.487
		c-0.402,0.465-0.868,0.81-1.396,1.037c-0.53,0.227-1.124,0.34-1.781,0.34c-0.549,0-1.068-0.103-1.564-0.309
		c-0.494-0.205-0.935-0.508-1.319-0.902c-0.379-0.39-0.678-0.865-0.902-1.425c-0.226-0.564-0.337-1.193-0.337-1.89
		c0-1.343,0.391-2.442,1.174-3.298c0.783-0.854,1.81-1.282,3.078-1.282c1.205,0,2.199,0.407,2.982,1.217
		C135.113,34.864,135.504,35.946,135.504,37.294 M133.7,37.311c0-0.436-0.044-0.897-0.132-1.382
		c-0.087-0.485-0.219-0.895-0.393-1.235c-0.186-0.361-0.432-0.649-0.733-0.868c-0.304-0.215-0.673-0.326-1.111-0.326
		c-0.449,0-0.832,0.111-1.15,0.332c-0.316,0.22-0.576,0.525-0.772,0.909c-0.186,0.354-0.318,0.757-0.393,1.212
		c-0.075,0.453-0.114,0.892-0.114,1.316c0,0.559,0.046,1.075,0.135,1.548c0.091,0.475,0.236,0.899,0.432,1.271
		c0.198,0.371,0.448,0.663,0.748,0.875c0.301,0.212,0.67,0.32,1.114,0.32c0.728,0,1.306-0.352,1.729-1.056
		C133.486,39.521,133.7,38.55,133.7,37.311 M132.975,28.946c0,0.22-0.051,0.4-0.154,0.54c-0.101,0.14-0.249,0.289-0.449,0.446
		c-0.289,0.232-0.668,0.53-1.138,0.89c-0.467,0.361-0.972,0.752-1.512,1.176l-0.332-0.279c0.523-0.772,0.889-1.318,1.095-1.635
		c0.205-0.318,0.429-0.668,0.668-1.051c0.179-0.296,0.354-0.497,0.521-0.607c0.169-0.106,0.364-0.161,0.584-0.161
		c0.21,0,0.383,0.072,0.516,0.214C132.908,28.623,132.975,28.777,132.975,28.946"/>
	<path fill="#FFFFFF" d="M144.114,40.791c0.232,0.22,0.415,0.472,0.549,0.75c0.133,0.28,0.2,0.625,0.2,1.037
		c0,0.414-0.089,0.801-0.27,1.165c-0.179,0.364-0.453,0.678-0.819,0.947c-0.391,0.273-0.854,0.485-1.396,0.637
		c-0.542,0.15-1.21,0.226-2.008,0.226c-1.3,0-2.276-0.191-2.92-0.572c-0.644-0.379-0.969-0.936-0.969-1.67
		c0-0.593,0.234-1.061,0.697-1.403c0.466-0.345,1.059-0.53,1.781-0.559v-0.123c-0.174-0.051-0.355-0.116-0.54-0.195
		c-0.186-0.079-0.347-0.171-0.48-0.275c-0.152-0.121-0.275-0.265-0.366-0.432c-0.094-0.166-0.14-0.371-0.14-0.613
		c0-0.309,0.108-0.593,0.326-0.853c0.219-0.258,0.547-0.48,0.989-0.666v-0.13c-0.557-0.263-0.991-0.598-1.299-1.008
		c-0.308-0.408-0.463-0.885-0.463-1.425c0-0.815,0.304-1.483,0.913-2.006c0.608-0.525,1.386-0.786,2.333-0.786
		c0.263,0,0.521,0.027,0.781,0.079c0.26,0.051,0.521,0.12,0.789,0.2h3.001v0.837h-2.023v0.053c0.215,0.249,0.374,0.526,0.478,0.829
		c0.104,0.302,0.159,0.6,0.159,0.89c0,0.755-0.308,1.394-0.921,1.919c-0.615,0.523-1.328,0.784-2.141,0.784h-1.054
		c-0.137,0.046-0.275,0.132-0.42,0.253c-0.147,0.121-0.219,0.287-0.219,0.497c0,0.215,0.063,0.379,0.185,0.492
		c0.121,0.113,0.27,0.19,0.444,0.232c0.167,0.046,0.366,0.075,0.588,0.087c0.224,0.01,0.456,0.019,0.695,0.026
		c0.255,0.005,0.605,0.024,1.049,0.053c0.446,0.029,0.76,0.046,0.948,0.051c0.267,0.012,0.535,0.077,0.805,0.191
		C143.646,40.427,143.892,40.587,144.114,40.791 M143.433,42.903c0-0.326-0.073-0.595-0.226-0.803
		c-0.152-0.21-0.381-0.352-0.69-0.427c-0.161-0.024-0.497-0.05-1.003-0.079c-0.504-0.031-1.092-0.043-1.762-0.043
		c-0.627,0.121-1.073,0.326-1.338,0.613c-0.265,0.289-0.396,0.66-0.396,1.111c0,0.205,0.043,0.4,0.132,0.586
		c0.085,0.186,0.236,0.357,0.451,0.514c0.203,0.152,0.478,0.275,0.822,0.371c0.342,0.096,0.76,0.144,1.254,0.144
		c0.856,0,1.529-0.164,2.02-0.492C143.188,44.068,143.433,43.569,143.433,42.903 M141.758,35.688c0-0.678-0.137-1.222-0.414-1.627
		c-0.275-0.403-0.665-0.607-1.165-0.607c-0.272,0-0.508,0.058-0.701,0.171c-0.195,0.113-0.354,0.275-0.475,0.484
		c-0.118,0.191-0.2,0.424-0.249,0.694c-0.05,0.272-0.075,0.549-0.075,0.834c0,0.646,0.142,1.171,0.424,1.579
		c0.282,0.407,0.646,0.61,1.095,0.61c0.499,0,0.883-0.202,1.155-0.607C141.623,36.814,141.758,36.305,141.758,35.688"/>
	<path fill="#FFFFFF" d="M150.01,41.681h-4.152v-0.576c0.133-0.012,0.272-0.022,0.414-0.034c0.144-0.012,0.267-0.036,0.371-0.07
		c0.164-0.053,0.284-0.144,0.362-0.273c0.079-0.132,0.118-0.301,0.118-0.509V34.91c0-0.185-0.041-0.355-0.126-0.509
		c-0.084-0.154-0.202-0.284-0.354-0.386c-0.109-0.07-0.27-0.13-0.478-0.179c-0.208-0.05-0.402-0.08-0.576-0.091v-0.576l3.035-0.193
		l0.121,0.123v7.011c0,0.203,0.039,0.373,0.118,0.506c0.079,0.135,0.2,0.234,0.369,0.297c0.126,0.051,0.249,0.096,0.371,0.126
		c0.123,0.032,0.258,0.053,0.408,0.065V41.681z M148.92,29.584c0,0.33-0.109,0.62-0.326,0.868c-0.219,0.246-0.489,0.371-0.808,0.371
		c-0.297,0-0.554-0.12-0.771-0.354c-0.219-0.236-0.328-0.504-0.328-0.807c0-0.321,0.109-0.6,0.328-0.837
		c0.217-0.239,0.473-0.357,0.771-0.357c0.332,0,0.603,0.111,0.815,0.335C148.814,29.027,148.92,29.286,148.92,29.584"/>
	<path fill="#FFFFFF" d="M155.051,41.908c-1.246,0-2.218-0.412-2.922-1.239c-0.704-0.825-1.054-1.933-1.054-3.324
		c0-0.603,0.094-1.169,0.282-1.695c0.19-0.528,0.463-1.005,0.824-1.435c0.343-0.412,0.774-0.745,1.292-1
		c0.518-0.251,1.082-0.379,1.692-0.379c0.844,0,1.529,0.203,2.059,0.607c0.528,0.405,0.793,0.955,0.793,1.654
		c0,0.291-0.07,0.547-0.208,0.771c-0.14,0.226-0.371,0.337-0.689,0.337c-0.343,0-0.608-0.087-0.8-0.261
		c-0.188-0.174-0.282-0.367-0.282-0.583c0-0.26,0.034-0.53,0.104-0.805c0.07-0.275,0.109-0.475,0.121-0.603
		c-0.104-0.179-0.258-0.299-0.465-0.361c-0.207-0.06-0.427-0.092-0.665-0.092c-0.279,0-0.545,0.06-0.796,0.179
		c-0.253,0.12-0.497,0.34-0.737,0.658c-0.214,0.291-0.388,0.685-0.521,1.179c-0.133,0.494-0.2,1.085-0.2,1.77
		c0,1.082,0.239,1.963,0.718,2.647c0.48,0.684,1.109,1.024,1.887,1.024c0.562,0,1.034-0.137,1.415-0.412
		c0.381-0.273,0.733-0.685,1.058-1.235l0.557,0.366c-0.383,0.687-0.889,1.23-1.516,1.63
		C156.369,41.708,155.721,41.908,155.051,41.908"/>
	<path fill="#FFFFFF" d="M167.578,37.293c0,0.605-0.097,1.2-0.289,1.784c-0.193,0.584-0.467,1.08-0.822,1.487
		c-0.402,0.467-0.868,0.812-1.396,1.039c-0.53,0.227-1.123,0.34-1.781,0.34c-0.547,0-1.068-0.104-1.564-0.311
		c-0.494-0.205-0.935-0.508-1.319-0.902c-0.378-0.39-0.678-0.865-0.902-1.425c-0.226-0.562-0.337-1.191-0.337-1.888
		c0-1.345,0.391-2.442,1.174-3.298c0.783-0.854,1.81-1.282,3.078-1.282c1.205,0,2.199,0.405,2.982,1.217
		C167.185,34.863,167.578,35.945,167.578,37.293 M165.772,37.31c0-0.436-0.043-0.895-0.132-1.382
		c-0.087-0.485-0.219-0.895-0.393-1.234c-0.186-0.361-0.432-0.649-0.733-0.868c-0.304-0.217-0.673-0.326-1.111-0.326
		c-0.448,0-0.832,0.111-1.15,0.332c-0.316,0.22-0.576,0.525-0.772,0.907c-0.186,0.354-0.318,0.757-0.393,1.212
		c-0.075,0.455-0.115,0.894-0.115,1.318c0,0.559,0.046,1.075,0.135,1.548c0.091,0.473,0.236,0.897,0.432,1.27
		c0.2,0.373,0.448,0.665,0.748,0.877s0.67,0.318,1.114,0.318c0.728,0,1.306-0.352,1.729-1.056
		C165.558,39.522,165.772,38.551,165.772,37.31"/>
	<path fill="#FFFFFF" d="M174.493,37.467c0.239,0.21,0.422,0.453,0.549,0.725c0.128,0.273,0.193,0.607,0.193,1.003
		c0,0.798-0.297,1.447-0.894,1.953c-0.596,0.506-1.369,0.76-2.315,0.76c-0.501,0-0.962-0.091-1.382-0.272
		c-0.422-0.179-0.723-0.345-0.902-0.497l-0.176,0.567h-0.654l-0.085-2.992h0.6c0.048,0.227,0.147,0.494,0.297,0.796
		c0.152,0.304,0.333,0.578,0.549,0.824c0.227,0.256,0.499,0.473,0.817,0.648c0.316,0.174,0.672,0.263,1.068,0.263
		c0.559,0,0.989-0.128,1.292-0.383c0.301-0.253,0.453-0.619,0.453-1.092c0-0.244-0.048-0.455-0.144-0.632
		c-0.096-0.178-0.238-0.333-0.424-0.467c-0.191-0.133-0.427-0.255-0.706-0.362c-0.28-0.108-0.59-0.214-0.935-0.318
		c-0.272-0.082-0.576-0.195-0.911-0.337c-0.333-0.142-0.62-0.309-0.86-0.502c-0.255-0.203-0.463-0.451-0.627-0.748
		s-0.244-0.646-0.244-1.046c0-0.704,0.261-1.3,0.784-1.789c0.525-0.489,1.225-0.733,2.104-0.733c0.337,0,0.68,0.043,1.032,0.13
		c0.352,0.089,0.637,0.193,0.86,0.316l0.2-0.455h0.629l0.132,2.765h-0.603c-0.121-0.619-0.384-1.123-0.789-1.511
		c-0.403-0.388-0.895-0.583-1.478-0.583c-0.475,0-0.851,0.12-1.124,0.361c-0.273,0.239-0.41,0.53-0.41,0.868
		c0,0.263,0.044,0.482,0.135,0.654c0.091,0.176,0.226,0.325,0.405,0.446c0.176,0.116,0.395,0.226,0.66,0.326
		c0.265,0.103,0.593,0.217,0.981,0.345c0.384,0.121,0.747,0.265,1.087,0.427C173.992,37.09,174.272,37.271,174.493,37.467"/>
</g>
</svg>
